<svg xmlns="http://www.w3.org/2000/svg" xmlns:xlink="http://www.w3.org/1999/xlink" xmlns:lucid="lucid" width="682" height="350"><g transform="translate(-199 -11)" lucid:page-tab-id="y_B~EWYVkx3F"><g filter="url(#a)"><path d="M480 280h100v60H480z" stroke="#000" stroke-opacity="0" stroke-width="4" fill="#fff" fill-opacity="0"/><use xlink:href="#b" transform="matrix(1,0,0,1,485,285) translate(37.592592592592595 30.333333333333336)"/></g><g filter="url(#c)"><path d="M220 292.5h60v35h-60z" stroke="#000" stroke-opacity="0" stroke-width="4" fill="#fff" fill-opacity="0"/><use xlink:href="#d" transform="matrix(1,0,0,1,225,297.5) translate(10.74074074074074 21.333333333333336)"/></g><g filter="url(#c)"><path d="M800 292.5h60v35h-60z" stroke="#000" stroke-opacity="0" stroke-width="4" fill="#fff" fill-opacity="0"/><use xlink:href="#d" transform="matrix(1,0,0,1,805,297.5) translate(10.74074074074074 21.333333333333336)"/></g><g filter="url(#e)"><path d="M410 32h240v60H410z" stroke="#000" stroke-opacity="0" stroke-width="4" fill="#fff" fill-opacity="0"/><use xlink:href="#f" transform="matrix(1,0,0,1,415,37) translate(105.4074074074074 30.333333333333336)"/></g><path d="M532 278h-4v-6.12h4zm0-14.3h-4v-12.23h4zm0-20.4h-4v-12.24h4zm0-20.4h-4v-12.25h4zm0-20.4h-4v-.5h4zm0-32.5h-4v-.16h4zm0-8.32h-4v-12.25h4zm0-20.4h-4V129h4zm0-20.42h-4v-6.12h4z" fill="#494949"/><path d="M532 280h-4v-2.05h4zM534.64 112.74h-9.28L530 98.47z" fill="#494949"/><path d="M537.4 114.74h-14.8L530 92zm-9.28-4h3.76l-1.88-5.8z" fill="#494949"/><use xlink:href="#g" transform="matrix(1,0,0,1,525.5925925925926,170) translate(0.004999999999999893 21.333333333333336)"/><path d="M358.74 312H282v-4h76.74zm98.52 0h-81.78v-4h81.78z" fill="#494949"/><path d="M282.05 312H280v-4h2.05zM473.53 310l-14.27 4.64v-9.28z" fill="#494949"/><path d="M480 310l-22.74 7.4v-14.8zm-18.74 1.88l5.8-1.88-5.8-1.88z" fill="#494949"/><use xlink:href="#h" transform="matrix(1,0,0,1,358.73822675393774,294) translate(0.005000000000000782 21.333333333333336)"/><path d="M681.63 312h-78.9v-4h78.9zM798 312h-99.63v-4H798z" fill="#494949"/><path d="M800 312h-2.05v-4H800zM600.74 314.64L586.47 310l14.27-4.64z" fill="#494949"/><path d="M602.74 317.4L580 310l22.74-7.4zm-9.8-7.4l5.8 1.88v-3.76z" fill="#494949"/><use xlink:href="#i" transform="matrix(1,0,0,1,681.6296296296297,294) translate(0.005000000000000782 21.333333333333336)"/><path d="M380.93 201.2L252.8 292.97l-2.34-3.25 130.47-93.4zm131.75-94.34l-113.6 81.35v-4.9l111.27-79.7z" fill="#494949"/><path d="M252.52 292.5h-5.96l3.94-2.82zM515.84 107.84l-5.4-7.54 14.3-4.53z" fill="#494949"/><path d="M515.8 111.24l-8.6-12L530 92zm-2.13-9.86l2.2 3.06 3.6-4.9z" fill="#494949"/><use xlink:href="#j" transform="matrix(1,0,0,1,380.9259259259259,176.25) translate(0.005000000000000782 21.333333333333336)"/><path d="M829.45 289.73l-2.22 3.32-156.4-104.5v-4.83zM652.7 171.6v4.8l-104.9-70.1 2.22-3.33z" fill="#494949"/><path d="M833.6 292.5h-6.07l1.88-2.8zM549.82 99.67l-5.15 7.7-9.3-11.77z" fill="#494949"/><path d="M553 98.5l-8.2 12.28L530 92zm-8.47 5.48l2.1-3.13-5.87-1.66z" fill="#494949"/><use xlink:href="#k" transform="matrix(1,0,0,1,652.6947486837262,164.06549654312988) translate(0.005000000000000782 21.333333333333336)"/><defs><path fill="#3d4752" d="M75-108c48 3 76-12 76-58s-28-57-76-54v112zm111-58c-1 60-46 78-111 74v78l37 5v9H13v-9l28-5v-208l-31-4v-10c81 1 178-14 176 70" id="l"/><use transform="matrix(0.07407407407407408,0,0,0.07407407407407408,0,0)" xlink:href="#l" id="b"/><filter id="a" filterUnits="objectBoundingBox" x="-.1" y="-.07" width="1.2" height="1.33"><feOffset result="offOut" in="SourceAlpha" dy="6"/><feGaussianBlur result="blurOut" in="offOut" stdDeviation="5"/><feColorMatrix result="colorOut" in="blurOut" values="0 0 0 0 0 0 0 0 0 0 0 0 0 0 0 0 0 0 0.16862745098039217 0"/><feBlend in="SourceGraphic" in2="colorOut"/></filter><path fill="#3d4752" d="M56-14l29 5v9H8v-9l26-5 80-107-68-101-27-4v-10h97v10l-30 4 49 73 55-73-29-4v-10h77v10l-26 4-66 88 81 120 26 5v9h-97v-9l30-5-62-91" id="m"/><path fill="#3d4752" d="M110-14l48 5v9H32v-9l48-5v-192l-48 17v-10l69-39h9v224" id="n"/><g id="d"><use transform="matrix(0.07407407407407408,0,0,0.07407407407407408,0,0)" xlink:href="#m"/><use transform="matrix(0.05185185185185186,0,0,0.05185185185185186,19.185185185185187,3.733333333333334)" xlink:href="#n"/></g><filter id="c" filterUnits="objectBoundingBox" x="-.17" y="-.11" width="1.33" height="1.57"><feOffset result="offOut" in="SourceAlpha" dy="6"/><feGaussianBlur result="blurOut" in="offOut" stdDeviation="5"/><feColorMatrix result="colorOut" in="blurOut" values="0 0 0 0 0 0 0 0 0 0 0 0 0 0 0 0 0 0 0.16862745098039217 0"/><feBlend in="SourceGraphic" in2="colorOut"/></filter><path fill="#3d4752" d="M147-93v79l38 5v9H76v-9l37-5v-78L31-222l-27-4v-10h100v10l-32 4 68 109 64-109-30-4v-10h77v10l-26 4" id="o"/><use transform="matrix(0.07407407407407408,0,0,0.07407407407407408,0,0)" xlink:href="#o" id="f"/><filter id="e" filterUnits="objectBoundingBox" x="-.04" y="-.07" width="1.08" height="1.33"><feOffset result="offOut" in="SourceAlpha" dy="6"/><feGaussianBlur result="blurOut" in="offOut" stdDeviation="5"/><feColorMatrix result="colorOut" in="blurOut" values="0 0 0 0 0 0 0 0 0 0 0 0 0 0 0 0 0 0 0.16862745098039217 0"/><feBlend in="SourceGraphic" in2="colorOut"/></filter><path fill="#3d4752" d="M103-236c-39-15-35 32-34 71h44v15H69v136l35 6v8H15v-8l25-6v-136H11v-9l29-7c-6-59 23-100 80-84v36c-15 2-12-14-17-22" id="p"/><use transform="matrix(0.07407407407407408,0,0,0.07407407407407408,0,0)" xlink:href="#p" id="g"/><path fill="#3d4752" d="M47-200c-23 0-25-39 0-38 13 0 18 7 20 19-1 11-8 19-20 19zM65-12l28 4v8H8v-8l28-4v-141l-24-4v-8h53v153" id="q"/><g id="h"><use transform="matrix(0.07407407407407408,0,0,0.07407407407407408,0,0)" xlink:href="#q"/><use transform="matrix(0.05185185185185186,0,0,0.05185185185185186,7.407407407407408,3.733333333333334)" xlink:href="#n"/></g><path fill="#3d4752" d="M24-231c66-21 156 2 128 81C132-92 78-66 39-27h121V0H16v-26l59-54c26-25 47-47 47-97 0-48-47-57-81-37l-6 29H24v-46" id="r"/><g id="i"><use transform="matrix(0.07407407407407408,0,0,0.07407407407407408,0,0)" xlink:href="#q"/><use transform="matrix(0.05185185185185186,0,0,0.05185185185185186,7.407407407407408,3.733333333333334)" xlink:href="#r"/></g><g id="j"><use transform="matrix(0.07407407407407408,0,0,0.07407407407407408,0,0)" xlink:href="#p"/><use transform="matrix(0.05185185185185186,0,0,0.05185185185185186,8.814814814814817,3.733333333333334)" xlink:href="#n"/></g><g id="k"><use transform="matrix(0.07407407407407408,0,0,0.07407407407407408,0,0)" xlink:href="#p"/><use transform="matrix(0.05185185185185186,0,0,0.05185185185185186,8.814814814814817,3.733333333333334)" xlink:href="#r"/></g></defs></g></svg>