<svg xmlns="http://www.w3.org/2000/svg" xmlns:xlink="http://www.w3.org/1999/xlink" xmlns:lucid="lucid" width="922" height="811.45"><g transform="translate(-419 -109.18181818181819)" lucid:page-tab-id="TLT~mJ2tR.8o"><path d="M589 381.93c-71.24 0-129-32.2-129-71.93 0-31.78 34.93-58.6 89.14-68.4C546 148.15 761 130.17 847 166.14c43-53.95 258-35.97 258 17.98 129-17.98 258 53.94 172 143.85 86 71.93 0 161.84-172 125.87-43 46.76-215 46.76-258 0-86 35.97-258 18-258-71.92z" stroke="#3d4752" stroke-width="4" fill="#fff" filter="url(#a)"/><path d="M572 791.75c-72.9 0-132-32.2-132-71.93 0-31.78 35.74-58.6 91.2-68.4C528 557.97 748 540 836 575.95c44-53.94 264-35.96 264 18 132-18 264 53.93 176 143.84 88 71.93 0 161.84-176 125.87-44 46.76-220 46.76-264 0-88 35.97-264 17.98-264-71.92z" stroke="#3d4752" stroke-width="4" fill="#fff" filter="url(#b)"/><g filter="url(#c)"><path d="M580 700h60v60h-60z" stroke="#000" stroke-opacity="0" stroke-width="4" fill="#fff" fill-opacity="0"/><use xlink:href="#d" transform="matrix(1,0,0,1,585,705) translate(16.11111111111111 30.333333333333336)"/></g><g filter="url(#c)"><path d="M880 700h60v60h-60z" stroke="#000" stroke-opacity="0" stroke-width="4" fill="#fff" fill-opacity="0"/><use xlink:href="#e" transform="matrix(1,0,0,1,885,705) translate(13.74074074074074 30.333333333333336)"/></g><path d="M755.6 732H642v-4h113.6zm101.66 0H764.4v-4h92.86z" fill="#494949"/><path d="M642.05 732H640v-4h2.05zM873.53 730l-14.27 4.64v-9.28z" fill="#494949"/><path d="M880 730l-22.74 7.4v-14.8zm-18.74 1.88l5.8-1.88-5.8-1.88z" fill="#494949"/><use xlink:href="#f" transform="matrix(1,0,0,1,755.5925925925926,714) translate(0.004999999999999893 21.333333333333336)"/><g filter="url(#c)"><path d="M580 280h60v60h-60z" stroke="#000" stroke-opacity="0" stroke-width="4" fill="#fff" fill-opacity="0"/><use xlink:href="#g" transform="matrix(1,0,0,1,585,285) translate(9 30.333333333333336)"/></g><g filter="url(#c)"><path d="M880 280h60v60h-60z" stroke="#000" stroke-opacity="0" stroke-width="4" fill="#fff" fill-opacity="0"/><use xlink:href="#h" transform="matrix(1,0,0,1,885,285) translate(6.333333333333332 30.333333333333336)"/></g><path d="M748.2 312H642v-4h106.2zm109.06 0H771.8v-4h85.46z" fill="#494949"/><path d="M642.05 312H640v-4h2.05zM873.53 310l-14.27 4.64v-9.28z" fill="#494949"/><path d="M880 310l-22.74 7.4v-14.8zm-18.74 1.88l5.8-1.88-5.8-1.88z" fill="#494949"/><use xlink:href="#i" transform="matrix(1,0,0,1,748.1851851851852,294) translate(0.005000000000000782 21.333333333333336)"/><path d="M610 698V362.74" fill="none"/><path d="M610 698v-8.38m0-16.76V656.1m0-16.77v-16.76m0-16.77v-16.76m0-16.76V555.5m0-16.75V522m0-16.78v-16.76m0-16.76v-16.76m0-16.77V421.4m0-16.75v-16.77m0-16.76v-8.38" stroke="#494949" stroke-width="4" fill="none"/><path d="M612 700h-4v-2.05h4z" fill="#494949"/><path d="M610 346.47l4.64 14.27h-9.28z" stroke="#494949" stroke-width="4" fill="#494949"/><path d="M910 698V362.74" fill="none"/><path d="M910 698v-8.38m0-16.76V656.1m0-16.77v-16.76m0-16.77v-16.76m0-16.76V555.5m0-16.75V522m0-16.78v-16.76m0-16.76v-16.76m0-16.77V421.4m0-16.75v-16.77m0-16.76v-8.38" stroke="#494949" stroke-width="4" fill="none"/><path d="M912 700h-4v-2.05h4z" fill="#494949"/><path d="M910 346.47l4.64 14.27h-9.28z" stroke="#494949" stroke-width="4" fill="#494949"/><g filter="url(#j)"><path d="M900 160h240v60H900z" stroke="#000" stroke-opacity="0" stroke-width="4" fill="#fff" fill-opacity="0"/><use xlink:href="#k" transform="matrix(1,0,0,1,905,165) translate(100.61111111111111 33)"/></g><g filter="url(#j)"><path d="M900 820h240v60H900z" stroke="#000" stroke-opacity="0" stroke-width="4" fill="#fff" fill-opacity="0"/><use xlink:href="#l" transform="matrix(1,0,0,1,905,825) translate(101.66666666666667 33)"/></g><g filter="url(#c)"><path d="M1140 280h60v60h-60z" stroke="#000" stroke-opacity="0" stroke-width="4" fill="#fff" fill-opacity="0"/><use xlink:href="#m" transform="matrix(1,0,0,1,1145,285) translate(3.962962962962962 30.333333333333336)"/></g><path d="M1011.8 312H942v-4h69.8zm105.46 0h-77.07v-4h77.06z" fill="#494949"/><path d="M942.05 312H940v-4h2.05zM1133.53 310l-14.27 4.64v-9.28z" fill="#494949"/><path d="M1140 310l-22.74 7.4v-14.8zm-18.74 1.88l5.8-1.88-5.8-1.88z" fill="#494949"/><use xlink:href="#n" transform="matrix(1,0,0,1,1011.8148148148148,294) translate(0.005000000000000782 21.333333333333336)"/><path d="M1011.8 732H942v-4h69.8zm105.46 0h-77.07v-4h77.06z" fill="#494949"/><path d="M942.05 732H940v-4h2.05zM1133.53 730l-14.27 4.64v-9.28z" fill="#494949"/><path d="M1140 730l-22.74 7.4v-14.8zm-18.74 1.88l5.8-1.88-5.8-1.88z" fill="#494949"/><use xlink:href="#n" transform="matrix(1,0,0,1,1011.8148148148148,714) translate(0.005000000000000782 21.333333333333336)"/><g filter="url(#c)"><path d="M1140 700h60v60h-60z" stroke="#000" stroke-opacity="0" stroke-width="4" fill="#fff" fill-opacity="0"/><use xlink:href="#o" transform="matrix(1,0,0,1,1145,705) translate(11.37037037037037 30.333333333333336)"/></g><path d="M1170 698V362.74" fill="none"/><path d="M1170 698v-8.38m0-16.76V656.1m0-16.77v-16.76m0-16.77v-16.76m0-16.76V555.5m0-16.75V522m0-16.78v-16.76m0-16.76v-16.76m0-16.77V421.4m0-16.75v-16.77m0-16.76v-8.38" stroke="#494949" stroke-width="4" fill="none"/><path d="M1172 700h-4v-2.05h4z" fill="#494949"/><path d="M1170 346.47l4.64 14.27h-9.28z" stroke="#494949" stroke-width="4" fill="#494949"/><defs><filter id="a" filterUnits="objectBoundingBox" x="-.01" y="-.01" width="1.02" height="1.06"><feOffset result="offOut" in="SourceAlpha" dy="6"/><feGaussianBlur result="blurOut" in="offOut" stdDeviation="5"/><feColorMatrix result="colorOut" in="blurOut" values="0 0 0 0 0 0 0 0 0 0 0 0 0 0 0 0 0 0 0.16862745098039217 0"/><feBlend in="SourceGraphic" in2="colorOut"/></filter><filter id="b" filterUnits="objectBoundingBox" x="-.01" y="-.01" width="1.02" height="1.06"><feOffset result="offOut" in="SourceAlpha" dy="6"/><feGaussianBlur result="blurOut" in="offOut" stdDeviation="5"/><feColorMatrix result="colorOut" in="blurOut" values="0 0 0 0 0 0 0 0 0 0 0 0 0 0 0 0 0 0 0.16862745098039217 0"/><feBlend in="SourceGraphic" in2="colorOut"/></filter><path fill="#3d4752" d="M52-115c0 93 80 130 150 87l7-35h11l-1 55c-23 7-52 12-83 12C60 4 19-37 15-115c-5-113 97-141 201-114l1 51h-12l-5-30c-15-9-39-16-62-16-66 0-86 41-86 109" id="p"/><use transform="matrix(0.07407407407407408,0,0,0.07407407407407408,0,0)" xlink:href="#p" id="d"/><filter id="c" filterUnits="objectBoundingBox" x="-.17" y="-.07" width="1.33" height="1.33"><feOffset result="offOut" in="SourceAlpha" dy="6"/><feGaussianBlur result="blurOut" in="offOut" stdDeviation="5"/><feColorMatrix result="colorOut" in="blurOut" values="0 0 0 0 0 0 0 0 0 0 0 0 0 0 0 0 0 0 0.16862745098039217 0"/><feBlend in="SourceGraphic" in2="colorOut"/></filter><path fill="#3d4752" d="M15-236h35l-11 85H26" id="q"/><g id="e"><use transform="matrix(0.07407407407407408,0,0,0.07407407407407408,0,0)" xlink:href="#p"/><use transform="matrix(0.07407407407407408,0,0,0.07407407407407408,17.77777777777778,0)" xlink:href="#q"/></g><path fill="#3d4752" d="M103-236c-39-15-35 32-34 71h44v15H69v136l35 6v8H15v-8l25-6v-136H11v-9l29-7c-6-59 23-100 80-84v36c-15 2-12-14-17-22" id="r"/><use transform="matrix(0.07407407407407408,0,0,0.07407407407407408,0,0)" xlink:href="#r" id="f"/><path fill="#3d4752" d="M75-106v92l39 5v9H13v-9l28-5v-208l-31-4v-10h177v57h-11l-6-38c-28-4-63-3-95-3v98h69l5-28h11v73h-11l-5-29H75" id="s"/><path fill="#3d4752" d="M81-9v9H4v-9l26-5 81-224h33l83 224 30 5v9h-99v-9l31-5-23-68H73L49-14zm38-203L78-98h82" id="t"/><g id="g"><use transform="matrix(0.07407407407407408,0,0,0.07407407407407408,0,0)" xlink:href="#s"/><use transform="matrix(0.07407407407407408,0,0,0.07407407407407408,12.814814814814817,0)" xlink:href="#t"/></g><g id="h"><use transform="matrix(0.07407407407407408,0,0,0.07407407407407408,0,0)" xlink:href="#s"/><use transform="matrix(0.07407407407407408,0,0,0.07407407407407408,14.814814814814817,0)" xlink:href="#p"/><use transform="matrix(0.07407407407407408,0,0,0.07407407407407408,32.592592592592595,0)" xlink:href="#q"/></g><g id="i"><use transform="matrix(0.07407407407407408,0,0,0.07407407407407408,0,0)" xlink:href="#s"/><use transform="matrix(0.07407407407407408,0,0,0.07407407407407408,14.814814814814817,0)" xlink:href="#r"/></g><path fill="#3d4752" d="M83-20c80 9 114-41 114-116 0-55-25-82-80-80zm169-119C251-34 178 11 65 0H-3l2-13 32-5 35-200-29-5 2-13c105-2 214-6 213 97" id="u"/><use transform="matrix(0.1111111111111111,0,0,0.1111111111111111,0,0)" xlink:href="#u" id="k"/><filter id="j" filterUnits="objectBoundingBox" x="-.04" y="-.07" width="1.08" height="1.33"><feOffset result="offOut" in="SourceAlpha" dy="6"/><feGaussianBlur result="blurOut" in="offOut" stdDeviation="5"/><feColorMatrix result="colorOut" in="blurOut" values="0 0 0 0 0 0 0 0 0 0 0 0 0 0 0 0 0 0 0.16862745098039217 0"/><feBlend in="SourceGraphic" in2="colorOut"/></filter><path fill="#3d4752" d="M67-92c-6 74 69 96 125 60l13-39h15l-11 60C128 16 12 10 12-93c0-122 110-166 231-136l-9 59h-15v-34c-11-9-30-16-51-16-69 4-96 57-101 128" id="v"/><use transform="matrix(0.1111111111111111,0,0,0.1111111111111111,0,0)" xlink:href="#v" id="l"/><g id="m"><use transform="matrix(0.07407407407407408,0,0,0.07407407407407408,0,0)" xlink:href="#s"/><use transform="matrix(0.07407407407407408,0,0,0.07407407407407408,14.814814814814817,0)" xlink:href="#p"/><use transform="matrix(0.07407407407407408,0,0,0.07407407407407408,32.592592592592595,0)" xlink:href="#q"/><use transform="matrix(0.07407407407407408,0,0,0.07407407407407408,37.333333333333336,0)" xlink:href="#q"/></g><g id="n"><use transform="matrix(0.07407407407407408,0,0,0.07407407407407408,0,0)" xlink:href="#s"/><use transform="matrix(0.07407407407407408,0,0,0.07407407407407408,14.814814814814817,0)" xlink:href="#r"/><use transform="matrix(0.07407407407407408,0,0,0.07407407407407408,23.629629629629633,0)" xlink:href="#q"/></g><g id="o"><use transform="matrix(0.07407407407407408,0,0,0.07407407407407408,0,0)" xlink:href="#p"/><use transform="matrix(0.07407407407407408,0,0,0.07407407407407408,17.77777777777778,0)" xlink:href="#q"/><use transform="matrix(0.07407407407407408,0,0,0.07407407407407408,22.51851851851852,0)" xlink:href="#q"/></g></defs></g></svg>