<svg xmlns="http://www.w3.org/2000/svg" xmlns:xlink="http://www.w3.org/1999/xlink" xmlns:lucid="lucid" width="1515" height="600"><g transform="translate(-200 -160)" lucid:page-tab-id="5CqaZsmyW5_1"><path d="M302.7 614C257 614 220 576.4 220 530c0-37.1 22.4-68.42 57.14-79.9-2-109.1 135.8-130.1 190.92-88.1 27.56-63 165.38-42 165.38 21 82.68-21 165.37 63 110.25 168 55.1 84 0 189-110.26 147-27.57 54.6-137.82 54.6-165.38 0-55.12 42-165.37 21-165.37-84z" stroke="#000" stroke-width="2" fill="#fff"/><path d="M420 680h240v60H420z" stroke="#000" stroke-opacity="0" stroke-width="2" fill="#fff" fill-opacity="0"/><use xlink:href="#a" transform="matrix(1,0,0,1,425,685) translate(101.66666666666667 33)"/><path d="M320 480h60v60h-60z" stroke="#000" stroke-opacity="0" stroke-width="2" fill="#fff" fill-opacity="0"/><use xlink:href="#b" transform="matrix(1,0,0,1,325,485) translate(13.80864197530864 31.22222222222222)"/><path d="M560 360h60v60h-60z" stroke="#000" stroke-opacity="0" stroke-width="2" fill="#fff" fill-opacity="0"/><use xlink:href="#c" transform="matrix(1,0,0,1,565,365) translate(13.80864197530864 31.22222222222222)"/><path d="M560 600h60v60h-60z" stroke="#000" stroke-opacity="0" stroke-width="2" fill="#fff" fill-opacity="0"/><use xlink:href="#d" transform="matrix(1,0,0,1,565,605) translate(13.80864197530864 31.22222222222222)"/><path d="M466.3 452.97l-84.96 42.48-.9-1.8 85.86-42.92zm77.6-38.8l-70.2 35.1v-2.24l69.3-34.65z"/><path d="M381.36 495.44l-1.36.68v-2.24l.47-.23zM546.42 416.97l-4.15-8.3 14.84-2.22z"/><path d="M546.14 418.65l-5.38-10.75L560 405zm-2.36-9.18l2.92 5.82 7.5-7.4z"/><use xlink:href="#e" transform="matrix(1,0,0,1,466.2962962962963,434) translate(0 21.333333333333336)"/><path d="M543.9 605.83l-.9 1.8-68.76-34.4V571zm-108.54-54.27v2.24l-54.9-27.46.88-1.8z"/><path d="M381.36 524.56l-.9 1.8-.46-.24v-2.24zM557.1 613.55l-14.83-2.23 4.15-8.3z"/><path d="M560 615l-19.24-2.9 5.38-10.75zm-16.22-4.47l10.43 1.58-7.5-7.4z"/><use xlink:href="#f" transform="matrix(1,0,0,1,435.3555555555556,546.4000000000001) translate(0 21.333333333333336)"/><path d="M679.1 507.3l.02 2-.07 2.03-.15 2.04-.25 2.05-.33 2.08-.43 2.12-.55 2.16-.64 2.2-.76 2.28-.9 2.34-1.06 2.42-1.23 2.52-1.42 2.63-1.63 2.75-1.9 2.9-2.18 3.06-2.54 3.26-2.95 3.47-3.45 3.74-4.04 4.03-4.78 4.36-5.66 4.77-6.78 5.23-8.17 5.77-9.9 6.4-10.55 6.2-1.02-1.73 10.5-6.17 9.85-6.36 8.1-5.72 6.7-5.18 5.6-4.7 4.73-4.32 3.98-3.96 3.4-3.67 2.9-3.42 2.47-3.2 2.15-3 1.85-2.82 1.6-2.68 1.37-2.55 1.2-2.45 1-2.34.88-2.27.75-2.2.62-2.12.52-2.07.4-2.04.33-2 .23-1.97.15-1.95.07-1.93-.02-1.94-.1-1.8h2zm-73.26-80.33l12.2 6.9 9.82 6.1 8.02 5.48 6.62 4.93 5.52 4.48 4.65 4.12 3.95 3.8 3.36 3.52 2.9 3.3 2.5 3.08 1.4 1.9v3.47l-.88-1.3-2.1-2.85-2.45-3.02-2.84-3.23-3.3-3.47-3.9-3.73-4.57-4.06-5.46-4.44-6.55-4.88-7.95-5.42-9.75-6.07-12.13-6.86-14.46-7.4.9-1.77z"/><path d="M590.46 421.36L587.8 420h3.36zM607.6 595.8l-14.75 2.67 10.36-10.85z"/><path d="M609.14 596.52L590 600l13.44-14.06zm-13.44.4l10.38-1.87-3.1-5.74z"/><use xlink:href="#g" transform="matrix(1,0,0,1,666.7749191563356,473.5569287672483) translate(0 21.333333333333336)"/><path d="M1070.25 572C1009.35 572 960 521.86 960 460c0-49.48 29.85-91.23 76.18-106.52C1033.5 208 1217.25 180 1290.75 236c36.75-84 220.5-56 220.5 28 110.25-28 220.5 84 147 224 73.5 112 0 252-147 196-36.75 72.8-183.75 72.8-220.5 0-73.5 56-220.5 28-220.5-112z" stroke="#0c7cba" stroke-width="2" fill="#fff"/><path d="M1280 640h240v60h-240z" stroke="#000" stroke-opacity="0" stroke-width="2" fill="#fff" fill-opacity="0"/><use xlink:href="#h" transform="matrix(1,0,0,1,1285,645) translate(89.5 33)"/><path d="M1300 330c0 49.7-40.3 90-90 90s-90-40.3-90-90 40.3-90 90-90 90 40.3 90 90z" stroke="#ef8d22" stroke-width="2" fill="#ef8d22"/><path d="M1200 280c0 11.05-8.95 20-20 20s-20-8.95-20-20 8.95-20 20-20 20 8.95 20 20z" stroke="#0c7cba" stroke-width="2" fill="#0c7cba"/><use xlink:href="#i" transform="matrix(1,0,0,1,1165,265) translate(11.296296296296296 21.333333333333336)"/><path d="M483.76 383.67l11.17.58 46.68 3.8-.15 2-46.65-3.8-11.1-.58-8.13-.08-6.87.2-6.2.48-5.8.68-5.55.9-5.45 1.1-5.44 1.34-5.22 1.52-7.77 2.66-7.98 3.24-7.94 3.73-7.6 4.12-7.12 4.36-6.5 4.5-5.83 4.53-5.16 4.5-4.55 4.4-4 4.32-3.44 4.2-3 4.06-2.58 3.95-2.22 3.83-1.9 3.73-1.6 3.66-1.34 3.58-1.1 3.52-.9 3.48-.66 3.46-.48 3.44-.28 3.44-.07 2.5-2-.07.07-2.54.3-3.55.5-3.55.68-3.56.9-3.6 1.15-3.62 1.38-3.68 1.66-3.76 1.94-3.83 2.28-3.93 2.64-4.04 3.06-4.16 3.53-4.27 4.06-4.4 4.62-4.5 5.26-4.56 5.92-4.6 6.58-4.55 7.2-4.42 7.72-4.16 8.03-3.78 8.07-3.3 7.87-2.7 5.3-1.53 5.52-1.37 5.53-1.12 5.64-.9 5.88-.7 6.27-.46 6.95-.23z"/><path d="M351.03 479l-.03 1h-2l.03-1.05zM556.77 389.83l-14.5 3.9.5-9.26z"/><path d="M560 390l-18.8 5.05.63-12zm-16.65 2.4l10.2-2.73-9.86-3.77zM589.16 438.6l-.4 1.87-.8 3.07-.87 2.93-1 2.8-1.05 2.7-1.16 2.6-1.26 2.52-1.34 2.43-1.45 2.38-1.54 2.34-1.65 2.28-1.77 2.23-1.9 2.2-2.05 2.18-2.2 2.16-2.37 2.13-2.58 2.13-2.8 2.12-3.04 2.1-3.34 2.13-3.68 2.13-4.07 2.13-4.54 2.13-5.08 2.13-5.77 2.15-6.6 2.14-7.64 2.13-8.97 2.1-10.75 2.04-13.23 1.94-17 1.77-23.83 1.47-62.4.82-.03-2 62.34-.83 23.74-1.46 16.92-1.75 13.15-1.93 10.67-2.03 8.9-2.1 7.55-2.1 6.52-2.1 5.68-2.13 5.02-2.1 4.46-2.1 4-2.1 3.6-2.07 3.27-2.07 2.98-2.07 2.74-2.07 2.5-2.1 2.32-2.07 2.14-2.1 2-2.1 1.84-2.15 1.72-2.17 1.6-2.2 1.5-2.26 1.4-2.3 1.3-2.38 1.22-2.44 1.12-2.52 1.04-2.62.95-2.72.85-2.85.76-2.98.4-1.85z"/><path d="M381.04 511H380v-2h1.02zM592.9 437.87l-9.23-.9 6-13.75z"/><path d="M594.16 439l-11.96-1.18L590 420zm-9.03-2.9l6.5.64-2.27-10.3z"/><path d="M1130 340h170v42.5h-170z" stroke="#000" stroke-opacity="0" stroke-width="2" fill="#fff" fill-opacity="0"/><use xlink:href="#j" transform="matrix(1,0,0,1,1135,345) translate(22.037037037037024 21.833333333333336)"/><path d="M351.1 544.22l.23 3.92.4 3.66.5 3.43.6 3.24.73 3.06.8 2.92.92 2.78 1 2.67 1.07 2.57 1.17 2.48 1.25 2.4 1.35 2.35 1.45 2.28 1.55 2.23 1.67 2.2 1.77 2.15 1.9 2.13 2.08 2.1 2.22 2.1 2.4 2.07 2.63 2.07 2.84 2.07 3.12 2.06 3.43 2.08 3.8 2.08 4.2 2.1 4.74 2.1 5.33 2.1 6.1 2.13 7 2.1 8.18 2.1 9.7 2.06 11.8 2 14.83 1.86 19.72 1.63 30.54 1.2 27.36.18v2l-27.4-.17-30.62-1.2-19.8-1.65-14.9-1.87-11.9-2-9.8-2.08-8.25-2.1-7.1-2.15-6.15-2.14-5.42-2.13-4.8-2.14-4.3-2.13-3.87-2.13-3.5-2.12-3.2-2.1-2.9-2.13-2.7-2.13-2.47-2.14-2.28-2.14-2.12-2.17-1.98-2.2-1.83-2.2-1.72-2.27-1.6-2.3-1.5-2.35-1.38-2.4-1.3-2.5-1.2-2.54-1.1-2.66-1.03-2.75-.94-2.87-.84-3-.74-3.15-.63-3.32-.52-3.5-.4-3.76-.24-4-.08-3.28 2-.04z"/><path d="M351.02 541l-2 .05L349 540h2zM556.76 629.98l-14.3 4.54.07-9.27z"/><path d="M560 630l-18.54 5.9.08-12.03zm-16.52 3.15l10.05-3.2-10-3.3zM443.42 509.83l23.83 1.46 17 1.76 13.23 1.95 10.75 2.05 8.98 2.1 7.65 2.13 6.6 2.14 5.77 2.15 5.1 2.14 4.53 2.14 4.07 2.13 3.68 2.12 3.34 2.1 3.05 2.12 2.78 2.12 2.58 2.13 2.37 2.14 2.2 2.17 2.05 2.17 1.9 2.2 1.77 2.24 1.66 2.28 1.55 2.33 1.45 2.37 1.34 2.44 1.25 2.53 1.15 2.6 1.06 2.7 1 2.8.87 2.93.8 3.07.4 1.88-1.97.43-.4-1.85-.75-3-.86-2.84-.96-2.72-1.04-2.62-1.12-2.52-1.2-2.44-1.32-2.37-1.4-2.3-1.5-2.27-1.6-2.2-1.72-2.18-1.85-2.14-2-2.1-2.14-2.1-2.3-2.1-2.52-2.07-2.73-2.06-2.97-2.07-3.27-2.07-3.6-2.08-4-2.1-4.46-2.1-5.02-2.1-5.7-2.1-6.5-2.12-7.57-2.1-8.88-2.1-10.67-2.02-13.15-1.93-16.92-1.76-23.74-1.47L381 511l.02-2z"/><path d="M381.04 509l-.02 2H380v-2zM589.68 596.78l-6-13.74 9.2-.9z"/><path d="M590 600l-7.8-17.82 11.96-1.18zm-4.87-16.1l4.23 9.66 2.26-10.3z"/><path d="M1640 550c0 49.7-40.3 90-90 90s-90-40.3-90-90 40.3-90 90-90 90 40.3 90 90z" stroke="#ef8d22" stroke-width="2" fill="#ef8d22"/><path d="M1560 510c0 16.57-13.43 30-30 30s-30-13.43-30-30 13.43-30 30-30 30 13.43 30 30z" stroke="#0c7cba" stroke-width="2" fill="#0c7cba"/><use xlink:href="#k" transform="matrix(1,0,0,1,1505,485) translate(5.555555555555554 30.333333333333336)"/><path d="M1470 560h170v42.5h-170z" stroke="#000" stroke-opacity="0" stroke-width="2" fill="#fff" fill-opacity="0"/><use xlink:href="#l" transform="matrix(1,0,0,1,1475,565) translate(22.037037037037024 21.833333333333336)"/><path d="M487.12 444.1l-3.96.7-.35-1.96 3.97-.7zm15.84-2.84l-7.92 1.42-.35-1.97 7.9-1.4zm15.84-2.83l-7.92 1.42-.35-1.97 7.92-1.42zm15.84-2.84l-7.92 1.4-.35-1.96 7.92-1.4zm15.85-2.84l-7.94 1.42-.35-1.97 7.93-1.4zm15.83-2.84l-7.92 1.42-.35-1.97 7.92-1.4zm15.84-2.83l-7.92 1.4-.36-1.96 7.92-1.42zm15.84-2.85l-7.9 1.42-.36-1.97 7.92-1.4zm15.85-2.83l-7.92 1.42-.35-1.97 7.92-1.42zm15.84-2.84l-7.93 1.42-.35-1.97 7.92-1.4zm15.83-2.83l-7.92 1.42-.34-1.97 7.92-1.42zm15.84-2.84l-7.92 1.43-.35-1.97 7.92-1.4zm15.84-2.82l-7.9 1.42-.36-1.97 7.92-1.42zm15.86-2.84l-7.93 1.42-.35-1.97 7.92-1.42zm15.84-2.83l-7.92 1.43-.36-1.97 7.92-1.42zm15.84-2.83l-7.92 1.42-.36-1.98 7.93-1.4zm15.84-2.83l-7.92 1.42-.35-1.97 7.93-1.43zm126.73-22.68l-7.9 1.42-.37-1.97 7.92-1.4zm15.85-2.84l-7.92 1.42-.35-1.97 7.92-1.4zM899 370.4l-7.93 1.4-.35-1.96 7.92-1.42zm15.83-2.85l-7.92 1.42-.34-1.97 7.92-1.4zm15.84-2.83l-7.92 1.42-.35-1.97 7.92-1.42zm15.84-2.84l-7.9 1.42-.36-1.97 7.92-1.4zm15.85-2.83l-7.92 1.42-.35-1.97 7.92-1.42zm15.85-2.84l-7.93 1.43-.35-1.97 7.92-1.4zm15.84-2.82l-7.92 1.42-.36-1.97 7.92-1.42zm15.84-2.84l-7.92 1.42-.36-1.97 7.92-1.42zm15.84-2.83l-7.92 1.43-.35-1.97 7.92-1.42zm15.84-2.83l-7.92 1.42-.35-1.98 7.9-1.4zm15.84-2.83l-7.92 1.42-.35-1.97 7.92-1.43zm15.84-2.84l-7.92 1.42-.35-1.97 7.92-1.4zm15.84-2.83l-7.92 1.42-.35-1.98 7.93-1.42zm11.88-2.13l-3.96.7-.35-1.96 3.96-.7z" fill="#0c7cba"/><path d="M483.2 444.8l-1.02.18-.36-1.96 1-.2zM1115.8 330.57l-13.2 7.08-1.64-9.13z" fill="#0c7cba"/><path d="M1119 330l-17.15 9.18-2.12-11.84zm-15.67 6.1l9.3-4.96-10.45-1.44z" fill="#0c7cba"/><use xlink:href="#m" transform="matrix(1,0,0,1,745.4629484916246,371) translate(0 21.333333333333336)"/><path d="M507.87 584.44l-9.93.02v-2l9.92-.02zm29.8-.07l-19.87.05v-2l19.86-.05zm29.8-.06l-19.87.05v-2l19.86-.04zm29.8-.06l-19.87.04v-2l19.86-.04zm29.8-.07l-19.87.05v-2l19.86-.05zm29.8-.07l-19.87.05v-2l19.86-.05zm29.8-.07l-19.87.05v-2l19.86-.05zm29.8-.06l-19.88.04v-2l19.86-.03zm29.8-.07l-19.88.04v-2l19.86-.04zm29.8-.07l-19.88.05v-2l19.85-.05zm29.8-.07l-19.88.05v-2l19.85-.04zm29.8-.06l-19.88.04v-2l19.85-.04zm14.63-.04h-4.7l-.02-2h4.72zm134.35-.3l-19.86.04-.02-2 19.87-.04zm29.8-.07l-19.87.03v-2l19.87-.04zm29.8-.08l-19.87.05v-2l19.86-.05zm29.8-.07l-19.87.05v-2l19.86-.05zm29.8-.07l-19.87.05v-2l19.86-.05zm29.8-.06l-19.87.04v-2l19.86-.04zm29.8-.07l-19.87.04v-2l19.86-.05zm29.8-.07l-19.87.05v-2l19.86-.05zm29.8-.07l-19.87.06v-2l19.86-.05zm29.8-.06l-19.87.05v-2l19.86-.06zm29.8-.06l-19.88.04v-2l19.87-.04zm29.8-.07l-19.88.05v-2l19.86-.04zm29.8-.06l-19.88.05v-2l19.86-.06zm29.8-.07l-19.88.05v-2l19.86-.05zm29.8-.06l-19.88.05v-2l19.86-.04zm29.78-.06l-19.86.04v-2l19.86-.04zm19.87-.05h-9.93v-2h9.93z" fill="#0c7cba"/><path d="M497.96 584.46h-1.02v-2h1.02zM1466.76 581.26l-14.25 4.67v-9.28z" fill="#0c7cba"/><path d="M1470 581.25l-18.5 6.05-.02-12.02zm-16.5 3.3l10.03-3.3-10.04-3.22z" fill="#0c7cba"/><use xlink:href="#m" transform="matrix(1,0,0,1,850.2959993715787,566.5363234132237) translate(0 21.333333333333336)"/><path d="M1497.68 365.76l5.08 3.22 4.62 3.2 4.22 3.2 3.86 3.2 3.56 3.2 3.28 3.22 3.03 3.23 2.8 3.24 2.6 3.3 2.42 3.3 2.24 3.38 2.06 3.43 1.93 3.5 1.77 3.58 1.64 3.68 1.5 3.8 1.37 3.9 1.23 4.07 1.08 4.24.94 4.4.73 4.36-1.97.33-.73-4.3-.92-4.34-1.06-4.15-1.2-3.98-1.34-3.84-1.47-3.7-1.6-3.6-1.74-3.52-1.9-3.42-2.02-3.36-2.2-3.3-2.36-3.25-2.55-3.22-2.76-3.2-2.97-3.15-3.22-3.15-3.5-3.15-3.8-3.14-4.15-3.15-4.55-3.15-5-3.18-5.16-2.97h3.34v-.38zm-157.6-36l29.1 1.82 23.13 2.4 18.96 2.8 6.1 1.16v2.03l-6.43-1.22-18.87-2.77-23.04-2.4-29.03-1.8-38.02-.76.04-2z" fill="#ef8d22"/><path d="M1302.05 329.02l-.04 2-1.03-.02.03-1v-1zM1549.77 455.77l-5.66-13.9 9.26-.66z" fill="#ef8d22"/><path d="M1550 459l-7.33-18.02 12-.87zm-4.44-16.22l3.97 9.76 2.53-10.23z" fill="#ef8d22"/><use xlink:href="#n" transform="matrix(1,0,0,1,1417.3596816769862,332.49892190816723) translate(0 21.333333333333336)"/><defs><path d="M67-92c-6 74 69 96 125 60l13-39h15l-11 60C128 16 12 10 12-93c0-122 110-166 231-136l-9 59h-15v-34c-11-9-30-16-51-16-69 4-96 57-101 128" id="o"/><use transform="matrix(0.1111111111111111,0,0,0.1111111111111111,0,0)" xlink:href="#o" id="a"/><path d="M81-9v9H4v-9l26-5 81-224h33l83 224 30 5v9h-99v-9l31-5-23-68H73L49-14zm38-203L78-98h82" id="p"/><use transform="matrix(0.08641975308641976,0,0,0.08641975308641976,0,0)" xlink:href="#p" id="b"/><path d="M56-14l29 5v9H8v-9l26-5 80-107-68-101-27-4v-10h97v10l-30 4 49 73 55-73-29-4v-10h77v10l-26 4-66 88 81 120 26 5v9h-97v-9l30-5-62-91" id="q"/><use transform="matrix(0.08641975308641976,0,0,0.08641975308641976,0,0)" xlink:href="#q" id="c"/><path d="M147-93v79l38 5v9H76v-9l37-5v-78L31-222l-27-4v-10h100v10l-32 4 68 109 64-109-30-4v-10h77v10l-26 4" id="r"/><use transform="matrix(0.08641975308641976,0,0,0.08641975308641976,0,0)" xlink:href="#r" id="d"/><path d="M101-234c-31-9-42 10-38 44h38v23H63V0H32v-167H5v-23h27c-7-52 17-82 69-68v24" id="s"/><use transform="matrix(0.07407407407407408,0,0,0.07407407407407408,0,0)" xlink:href="#s" id="e"/><path d="M177-190C167-65 218 103 67 71c-23-6-38-20-44-43l32-5c15 47 100 32 89-28v-30C133-14 115 1 83 1 29 1 15-40 15-95c0-56 16-97 71-98 29-1 48 16 59 35 1-10 0-23 2-32h30zM94-22c36 0 50-32 50-73 0-42-14-75-50-75-39 0-46 34-46 75s6 73 46 73" id="t"/><path d="M146-113c0-18-16-34-33-34-18 0-33 16-33 34 0 19 14 33 33 33s33-14 33-33zm-89 0c0-31 25-57 56-56 34 2 55 22 56 56 1 29-26 55-56 55-31 0-56-24-56-55" id="u"/><g id="f"><use transform="matrix(0.07407407407407408,0,0,0.07407407407407408,0,0)" xlink:href="#t"/><use transform="matrix(0.07407407407407408,0,0,0.07407407407407408,14.814814814814817,0)" xlink:href="#u"/><use transform="matrix(0.07407407407407408,0,0,0.07407407407407408,31.481481481481485,0)" xlink:href="#s"/></g><use transform="matrix(0.07407407407407408,0,0,0.07407407407407408,0,0)" xlink:href="#t" id="g"/><path fill="#0c7cba" d="M128-140c85 34 48 161-52 144C49 5 24-2 7-9l11-63h15v38c24 36 125 19 95-37-22-41-94-36-94-101 0-71 88-73 151-59l-10 56h-15l-2-34c-26-23-99-7-75 36 9 16 30 23 45 33" id="v"/><path fill="#0c7cba" d="M8-58c3-72 59-136 130-101 9 5 14 13 14 25 0 48-53 54-95 64-3 26 4 52 31 52 20 0 33-9 45-17l8 11C108 13 5 18 8-58zm101-78c-5-28-28-9-35 5-6 12-12 25-14 42 27-4 47-18 49-47" id="w"/><path fill="#0c7cba" d="M62-57c-4 16-6 39 13 38 8 0 13-3 20-4l4 12C72 11 3 12 13-44l18-103H11l2-11 25-7 24-38h26l-7 38h28l-3 18H78" id="x"/><g id="h"><use transform="matrix(0.1111111111111111,0,0,0.1111111111111111,0,0)" xlink:href="#v"/><use transform="matrix(0.1111111111111111,0,0,0.1111111111111111,22.22222222222222,0)" xlink:href="#w"/><use transform="matrix(0.1111111111111111,0,0,0.1111111111111111,39.888888888888886,0)" xlink:href="#x"/></g><path fill="#fff" d="M101-234c-31-9-42 10-38 44h38v23H63V0H32v-167H5v-23h27c-7-52 17-82 69-68v24" id="y"/><use transform="matrix(0.07407407407407408,0,0,0.07407407407407408,0,0)" xlink:href="#y" id="i"/><path d="M10 0v-9l31-5v-208l-31-4v-10h95v10l-30 4v93h110v-93l-30-4v-10h94v10l-30 4v208l30 5v9h-94v-9l30-5v-99H75v99l30 5v9H10" id="z"/><path d="M90-170c52 0 76 32 76 87 0 54-24 87-77 87-51 0-75-34-75-87 0-54 24-87 76-87zM89-10c39 0 46-35 46-73 0-39-7-73-46-73-39 1-44 34-44 73s6 72 44 73" id="A"/><path d="M126-118c4-37-42-32-68-25v131l24 4v8H8C5-13 21-9 28-12v-141c-7-3-23 1-20-12h48l1 13c22-15 77-30 92 2 32-22 104-36 104 29v109c8 3 24-2 21 12h-75v-8l25-4v-106c3-39-45-31-72-24 7 37 1 88 3 130l25 4v8h-78v-8l24-4v-106" id="B"/><path d="M87 75C49 33 22-17 22-94c0-76 28-126 65-167h31c-38 41-64 92-64 168S80 34 118 75H87" id="C"/><path d="M42-37c43 0 23 74-4 81-7 4-14 8-24 11V42c17-5 29-14 31-30C42-2 20 1 21-18c0-12 9-19 21-19" id="D"/><path d="M33-261c38 41 65 92 65 168S71 34 33 75H2C39 34 66-17 66-93S39-220 2-261h31" id="E"/><g id="j"><use transform="matrix(0.07407407407407408,0,0,0.07407407407407408,0,0)" xlink:href="#z"/><use transform="matrix(0.07407407407407408,0,0,0.07407407407407408,19.185185185185187,0)" xlink:href="#A"/><use transform="matrix(0.07407407407407408,0,0,0.07407407407407408,32.51851851851852,0)" xlink:href="#B"/><use transform="matrix(0.07407407407407408,0,0,0.07407407407407408,53.25925925925927,0)" xlink:href="#C"/><use transform="matrix(0.07407407407407408,0,0,0.07407407407407408,62.07407407407408,0)" xlink:href="#p"/><use transform="matrix(0.07407407407407408,0,0,0.07407407407407408,81.25925925925927,0)" xlink:href="#D"/><use transform="matrix(0.07407407407407408,0,0,0.07407407407407408,87.92592592592594,0)" xlink:href="#q"/><use transform="matrix(0.07407407407407408,0,0,0.07407407407407408,107.11111111111113,0)" xlink:href="#E"/></g><path fill="#fff" d="M177-190C167-65 218 103 67 71c-23-6-38-20-44-43l32-5c15 47 100 32 89-28v-30C133-14 115 1 83 1 29 1 15-40 15-95c0-56 16-97 71-98 29-1 48 16 59 35 1-10 0-23 2-32h30zM94-22c36 0 50-32 50-73 0-42-14-75-50-75-39 0-46 34-46 75s6 73 46 73" id="F"/><path fill="#fff" d="M146-113c0-18-16-34-33-34-18 0-33 16-33 34 0 19 14 33 33 33s33-14 33-33zm-89 0c0-31 25-57 56-56 34 2 55 22 56 56 1 29-26 55-56 55-31 0-56-24-56-55" id="G"/><g id="k"><use transform="matrix(0.07407407407407408,0,0,0.07407407407407408,0,0)" xlink:href="#F"/><use transform="matrix(0.07407407407407408,0,0,0.07407407407407408,14.814814814814817,0)" xlink:href="#G"/><use transform="matrix(0.07407407407407408,0,0,0.07407407407407408,31.481481481481485,0)" xlink:href="#y"/></g><g id="l"><use transform="matrix(0.07407407407407408,0,0,0.07407407407407408,0,0)" xlink:href="#z"/><use transform="matrix(0.07407407407407408,0,0,0.07407407407407408,19.185185185185187,0)" xlink:href="#A"/><use transform="matrix(0.07407407407407408,0,0,0.07407407407407408,32.51851851851852,0)" xlink:href="#B"/><use transform="matrix(0.07407407407407408,0,0,0.07407407407407408,53.25925925925927,0)" xlink:href="#C"/><use transform="matrix(0.07407407407407408,0,0,0.07407407407407408,62.07407407407408,0)" xlink:href="#p"/><use transform="matrix(0.07407407407407408,0,0,0.07407407407407408,81.25925925925927,0)" xlink:href="#D"/><use transform="matrix(0.07407407407407408,0,0,0.07407407407407408,87.92592592592594,0)" xlink:href="#r"/><use transform="matrix(0.07407407407407408,0,0,0.07407407407407408,107.11111111111113,0)" xlink:href="#E"/></g><path fill="#0c7cba" d="M10 0v-9l31-5v-208l-31-4v-10h95v10l-30 4v93h110v-93l-30-4v-10h94v10l-30 4v208l30 5v9h-94v-9l30-5v-99H75v99l30 5v9H10" id="H"/><path fill="#0c7cba" d="M90-170c52 0 76 32 76 87 0 54-24 87-77 87-51 0-75-34-75-87 0-54 24-87 76-87zM89-10c39 0 46-35 46-73 0-39-7-73-46-73-39 1-44 34-44 73s6 72 44 73" id="I"/><path fill="#0c7cba" d="M126-118c4-37-42-32-68-25v131l24 4v8H8C5-13 21-9 28-12v-141c-7-3-23 1-20-12h48l1 13c22-15 77-30 92 2 32-22 104-36 104 29v109c8 3 24-2 21 12h-75v-8l25-4v-106c3-39-45-31-72-24 7 37 1 88 3 130l25 4v8h-78v-8l24-4v-106" id="J"/><path fill="#0c7cba" d="M87 75C49 33 22-17 22-94c0-76 28-126 65-167h31c-38 41-64 92-64 168S80 34 118 75H87" id="K"/><path fill="#0c7cba" d="M81-9v9H4v-9l26-5 81-224h33l83 224 30 5v9h-99v-9l31-5-23-68H73L49-14zm38-203L78-98h82" id="L"/><path fill="#0c7cba" d="M42-37c43 0 23 74-4 81-7 4-14 8-24 11V42c17-5 29-14 31-30C42-2 20 1 21-18c0-12 9-19 21-19" id="M"/><path fill="#0c7cba" d="M-3 46V28h186v18H-3" id="N"/><path fill="#0c7cba" d="M33-261c38 41 65 92 65 168S71 34 33 75H2C39 34 66-17 66-93S39-220 2-261h31" id="O"/><g id="m"><use transform="matrix(0.07407407407407408,0,0,0.07407407407407408,0,0)" xlink:href="#H"/><use transform="matrix(0.07407407407407408,0,0,0.07407407407407408,19.185185185185187,0)" xlink:href="#I"/><use transform="matrix(0.07407407407407408,0,0,0.07407407407407408,32.51851851851852,0)" xlink:href="#J"/><use transform="matrix(0.07407407407407408,0,0,0.07407407407407408,53.25925925925927,0)" xlink:href="#K"/><use transform="matrix(0.07407407407407408,0,0,0.07407407407407408,62.07407407407408,0)" xlink:href="#L"/><use transform="matrix(0.07407407407407408,0,0,0.07407407407407408,81.25925925925927,0)" xlink:href="#M"/><use transform="matrix(0.07407407407407408,0,0,0.07407407407407408,87.92592592592594,0)" xlink:href="#N"/><use transform="matrix(0.07407407407407408,0,0,0.07407407407407408,101.25925925925927,0)" xlink:href="#O"/></g><path fill="#ef8d22" d="M212-179c-10-28-35-45-73-45-59 0-87 40-87 99 0 60 29 101 89 101 43 0 62-24 78-52l27 14C228-24 195 4 139 4 59 4 22-46 18-125c-6-104 99-153 187-111 19 9 31 26 39 46" id="P"/><path fill="#ef8d22" d="M87 75C49 33 22-17 22-94c0-76 28-126 65-167h31c-38 41-64 92-64 168S80 34 118 75H87" id="Q"/><path fill="#ef8d22" d="M81-9v9H4v-9l26-5 81-224h33l83 224 30 5v9h-99v-9l31-5-23-68H73L49-14zm38-203L78-98h82" id="R"/><path fill="#ef8d22" d="M42-37c43 0 23 74-4 81-7 4-14 8-24 11V42c17-5 29-14 31-30C42-2 20 1 21-18c0-12 9-19 21-19" id="S"/><path fill="#ef8d22" d="M177-190C167-65 218 103 67 71c-23-6-38-20-44-43l32-5c15 47 100 32 89-28v-30C133-14 115 1 83 1 29 1 15-40 15-95c0-56 16-97 71-98 29-1 48 16 59 35 1-10 0-23 2-32h30zM94-22c36 0 50-32 50-73 0-42-14-75-50-75-39 0-46 34-46 75s6 73 46 73" id="T"/><path fill="#ef8d22" d="M33-261c38 41 65 92 65 168S71 34 33 75H2C39 34 66-17 66-93S39-220 2-261h31" id="U"/><g id="n"><use transform="matrix(0.07407407407407408,0,0,0.07407407407407408,0,0)" xlink:href="#P"/><use transform="matrix(0.07407407407407408,0,0,0.07407407407407408,19.185185185185187,0)" xlink:href="#Q"/><use transform="matrix(0.07407407407407408,0,0,0.07407407407407408,28.000000000000004,0)" xlink:href="#R"/><use transform="matrix(0.07407407407407408,0,0,0.07407407407407408,47.18518518518519,0)" xlink:href="#S"/><use transform="matrix(0.07407407407407408,0,0,0.07407407407407408,53.85185185185186,0)" xlink:href="#T"/><use transform="matrix(0.07407407407407408,0,0,0.07407407407407408,68.66666666666669,0)" xlink:href="#U"/></g></defs></g></svg>