<svg xmlns="http://www.w3.org/2000/svg" xmlns:xlink="http://www.w3.org/1999/xlink" xmlns:lucid="lucid" width="1502" height="662"><g transform="translate(-19 -139)" lucid:page-tab-id="mDeabCaa_HUg"><path d="M112 628c-39.76 0-72-39.4-72-88 0-38.88 19.5-71.68 49.75-83.7C88 342 208 320 256 364c24-66 144-44 144 22 72-22 144 66 96 176 48 88 0 198-96 154-24 57.2-120 57.2-144 0-48 44-144 22-144-88z" stroke="#3d4752" stroke-width="4" fill="#fff" filter="url(#a)"/><g filter="url(#b)"><path d="M240 420h60v60h-60z" stroke="#000" stroke-opacity="0" stroke-width="4" fill="#fff" fill-opacity="0"/><use xlink:href="#c" transform="matrix(1,0,0,1,245,425) translate(16.11111111111111 30.333333333333336)"/></g><g filter="url(#b)"><path d="M240 600h60v60h-60z" stroke="#000" stroke-opacity="0" stroke-width="4" fill="#fff" fill-opacity="0"/><use xlink:href="#d" transform="matrix(1,0,0,1,245,605) translate(13.74074074074074 30.333333333333336)"/></g><path d="M272 577.26h-4v-28.6h4zm0-60.6h-4V482h4z" fill="#494949"/><path d="M272 482.05h-4V480h4zM270 593.53l-4.64-14.27h9.28z" fill="#494949"/><path d="M270 600l-7.4-22.74h14.8zm-1.88-18.74l1.88 5.8 1.88-5.8z" fill="#494949"/><use xlink:href="#e" transform="matrix(1,0,0,1,265.5925925925926,516.6666666666666) translate(0.004999999999999893 21.333333333333336)"/><g filter="url(#f)"><path d="M200 680h240v60H200z" stroke="#000" stroke-opacity="0" stroke-width="4" fill="#fff" fill-opacity="0"/><use xlink:href="#g" transform="matrix(1,0,0,1,205,685) translate(101.66666666666667 33)"/></g><path d="M922 594c-56.33 0-102-55.52-102-124 0-54.8 27.62-101 70.48-117.93C888 191 1058 160 1126 222c34-93 204-62 204 31 102-31 204 93 136 248 68 124 0 279-136 217-34 80.6-170 80.6-204 0-68 62-204 31-204-124z" stroke="#494949" stroke-width="4" fill="#fff" filter="url(#h)"/><g filter="url(#i)"><path d="M936.36 220H1020v56.36h-83.64z" stroke="#000" stroke-opacity="0" stroke-width="4" fill="#fff" fill-opacity="0"/><use xlink:href="#j" transform="matrix(1,0,0,1,941.3636363636364,225) translate(20.703703703703702 28.833333333333336)"/></g><g filter="url(#k)"><path d="M936.36 380H1020v59.1h-83.64z" stroke="#000" stroke-opacity="0" stroke-width="4" fill="#fff" fill-opacity="0"/><use xlink:href="#l" transform="matrix(1,0,0,1,941.3636363636364,385) translate(18.333333333333332 30.333333333333336)"/></g><path d="M980.18 357.26h-4v-13.08h4zm0-45.08h-4v-33.82h4z" fill="#b391b5"/><path d="M980.18 278.4h-4v-2.04h4zM978.18 373.53l-4.63-14.27h9.27z" fill="#b391b5"/><path d="M978.18 380l-7.4-22.74h14.8zm-1.88-18.74l1.88 5.8 1.88-5.8z" fill="#b391b5"/><use xlink:href="#m" transform="matrix(1,0,0,1,966.3670033670033,312.181818) translate(0.005000000000000782 21.333333333333336)"/><g filter="url(#n)"><path d="M1001.82 629.1h392.73v98.17h-392.73z" stroke="#000" stroke-opacity="0" stroke-width="4" fill="#fff" fill-opacity="0"/><use xlink:href="#o" transform="matrix(1,0,0,1,1006.8181818181819,634.090909090909) translate(177.11111111111111 52.5)"/></g><path d="M310.17 448.87l-7.66 2.43-1.2-3.8 7.66-2.44zm30.64-9.7L325.5 444l-1.22-3.8 15.32-4.86zm30.65-9.73l-15.32 4.86-1.2-3.82 15.3-4.85zm30.64-9.72l-15.33 4.86-1.2-3.8 15.3-4.87zm30.63-9.72l-15.32 4.86-1.2-3.8 15.32-4.87zm30.64-9.7l-15.32 4.85-1.2-3.82 15.3-4.86zm30.64-9.73l-15.3 4.86-1.22-3.8 15.32-4.87zm30.64-9.72l-15.3 4.86-1.22-3.8 15.32-4.86zm30.64-9.7L539.96 376l-1.2-3.82 15.3-4.86zm30.64-9.73l-15.32 4.86-1.2-3.8 15.3-4.87zm24.85-7.88l-9.53 3.02-1.2-3.8 10.73-3.42zM647.2 342l-15.32 4.84-1.2-3.8 15.3-4.87zm30.64-9.73l-15.32 4.86-1.2-3.82 15.3-4.84zm30.64-9.72l-15.32 4.86-1.2-3.8 15.3-4.86zm30.64-9.72l-15.32 4.86-1.2-3.82 15.3-4.86zm30.64-9.7l-15.32 4.85-1.2-3.82 15.3-4.86zm30.64-9.73l-15.32 4.86-1.2-3.8 15.3-4.87zm30.64-9.72l-15.32 4.86-1.2-3.8 15.3-4.87zm30.64-9.7l-15.32 4.85-1.2-3.82 15.3-4.85zm30.63-9.73L877 269.1l-1.2-3.8 15.3-4.86zm23-7.3l-7.67 2.44-1.2-3.82 7.65-2.43z" fill="#b391b5"/><path d="M302.56 451.3l-2.56.8v-4.2l1.35-.43zM930.2 250.14l-12.2 8.73-2.8-8.84z" fill="#b391b5"/><path d="M936.36 248.18l-19.44 13.92-4.46-14.1zm-17.3 7.46l4.97-3.55-6.1-.05z" fill="#b391b5"/><use xlink:href="#p" transform="matrix(1,0,0,1,610.7744107744109,333.0909090909091) translate(0.004999999999999893 21.333333333333336)"/><path d="M310.16 619.6l-7.66 2.38-1.18-3.82 7.65-2.4zm30.64-9.55l-15.32 4.77-1.2-3.82 15.33-4.76zm30.64-9.53l-15.32 4.77-1.2-3.83 15.33-4.77zm30.63-9.54l-15.3 4.77-1.2-3.82 15.32-4.77zm30.64-9.54l-15.3 4.77-1.2-3.8 15.32-4.78zm30.65-9.53l-15.32 4.77-1.2-3.8 15.33-4.78zm30.64-9.53l-15.33 4.77-1.2-3.82 15.33-4.77zm30.62-9.54l-15.3 4.77-1.2-3.82 15.3-4.77zm30.64-9.54l-15.32 4.76-1.2-3.82 15.33-4.77zm30.64-9.54l-15.32 4.77-1.2-3.82 15.33-4.76zm24.87-7.75l-9.55 3-1.2-3.83 10.75-3.35zm36.4-11.32l-15.32 4.77-1.2-3.82 15.33-4.77zm30.64-9.54l-15.3 4.77-1.2-3.8 15.32-4.77zm30.65-9.53l-15.32 4.78-1.2-3.82 15.33-4.77zm30.63-9.53l-15.3 4.77-1.2-3.82 15.32-4.77zm30.64-9.54l-15.32 4.77-1.2-3.82 15.33-4.77zm30.64-9.53l-15.32 4.76-1.2-3.8 15.33-4.78zm30.64-9.54l-15.32 4.77-1.2-3.82 15.33-4.76zm30.63-9.54l-15.32 4.77-1.17-3.83 15.3-4.77zm30.64-9.54l-15.32 4.77-1.2-3.82 15.33-4.77zm22.98-7.15l-7.66 2.4-1.2-3.83 7.66-2.4z" fill="#b391b5"/><path d="M302.55 621.96l-2.55.8v-4.2l1.36-.42zM930.18 424.5l-12.24 8.65-2.75-8.85z" fill="#b391b5"/><path d="M936.36 422.56l-19.5 13.82-4.4-14.1zm-17.33 7.37l4.97-3.52-6.1-.06z" fill="#b391b5"/><use xlink:href="#p" transform="matrix(1,0,0,1,610.7744107744109,505.61220679192434) translate(0.004999999999999893 21.333333333333336)"/><g filter="url(#q)"><path d="M1160 363.64h123.64V420H1160z" stroke="#000" stroke-opacity="0" stroke-width="4" fill="#fff" fill-opacity="0"/><use xlink:href="#r" transform="matrix(1,0,0,1,1165.0000000000002,368.6363636363636) translate(38.51851851851852 28.833333333333336)"/></g><g filter="url(#s)"><path d="M1160 540.9h123.64V600H1160z" stroke="#000" stroke-opacity="0" stroke-width="4" fill="#fff" fill-opacity="0"/><use xlink:href="#t" transform="matrix(1,0,0,1,1165.0000000000002,545.909090909091) translate(36.14814814814815 30.333333333333336)"/></g><path d="M1223.82 518.17h-4V467.5h4zm0-82.66h-4V422h4z" fill="#ef8d22"/><path d="M1223.82 422.05h-4V420h4zM1221.82 534.44l-4.64-14.27h9.27z" fill="#ef8d22"/><path d="M1221.82 540.9l-7.4-22.73h14.8zm-1.88-18.73l1.88 5.8 1.88-5.8z" fill="#ef8d22"/><use xlink:href="#u" transform="matrix(1,0,0,1,1207.818181818182,435.5121951022783) translate(0.005000000000000782 21.333333333333336)"/><path d="M306.1 449.8l-3.98.24-.25-4 3.98-.24zm23.86-1.46l-7.95.48-.24-4 7.96-.47zm23.87-1.46l-7.96.5-.24-4 7.95-.5zm23.86-1.46l-7.96.5-.25-4 7.95-.5zm23.86-1.46l-7.96.5-.24-4 7.96-.5zm23.87-1.46l-7.96.5-.24-4 7.95-.5zm23.86-1.46l-7.96.5-.25-4 7.95-.5zm23.86-1.45l-7.96.47-.24-4 7.95-.48zm23.86-1.47l-7.95.48-.25-3.98 7.96-.5zm23.87-1.46l-7.97.48-.24-4 7.95-.47zm23.86-1.46l-7.96.5-.24-4 7.95-.48zm23.86-1.45l-7.95.5-.25-4 7.96-.5zm23.87-1.46l-7.97.48-.24-4 7.94-.48zm23.85-1.47l-7.95.5-.25-4 7.96-.5zm23.87-1.46l-7.96.5-.24-4 7.96-.5zm23.87-1.46l-7.97.5-.24-4 7.94-.48zm23.85-1.44l-7.95.48-.25-4 7.96-.48zm23.87-1.46l-7.96.48-.24-4 7.95-.48zm47.73-2.92l-7.96.5-.25-4 7.95-.5zm23.86-1.46l-7.94.5-.24-4 7.95-.5zm23.88-1.46l-7.95.5-.25-4 7.96-.5zm23.87-1.46l-7.96.5-.25-4 7.95-.5zm23.86-1.46l-7.94.5-.25-4 7.97-.5zm23.88-1.46l-7.96.5-.24-4 7.95-.5zm23.86-1.45l-7.95.48-.25-3.98 7.95-.5zm23.87-1.46l-7.94.48-.25-4 7.97-.48zm23.88-1.46l-7.96.5-.24-4 7.95-.48zm23.86-1.45l-7.95.5-.26-4 7.96-.5zm23.87-1.46l-7.95.48-.24-4 7.96-.48zm23.87-1.47l-7.95.5-.25-4 7.96-.5zm23.87-1.46l-7.96.5-.24-4 7.96-.5zm23.87-1.46l-7.95.5-.24-4 7.96-.48zm23.87-1.44l-7.95.48-.25-4 7.96-.48zm23.87-1.46l-7.96.48-.24-4 7.95-.48zm19.9-1.22l-4 .24-.24-4 3.98-.23z" fill="#ef8d22"/><path d="M302.17 450.04l-2.17.13v-4l1.93-.13zM1153.54 396l-13.96 5.5-.56-9.26z" fill="#ef8d22"/><path d="M1160 395.6l-22.24 8.76-.9-14.75zm-18.6 3.02l5.68-2.23-5.9-1.54z" fill="#ef8d22"/><use xlink:href="#v" transform="matrix(1,0,0,1,720.4074074074075,405.8815663801337) translate(0.005000000000000782 21.333333333333336)"/><path d="M306.1 631.58l-3.97.28-.27-4 3.97-.27zm23.88-1.65l-7.96.55-.27-4 7.95-.54zm23.86-1.65l-7.95.55-.3-4 7.97-.54zm23.87-1.66l-7.95.56-.27-4 7.95-.55zm23.88-1.65l-7.96.55-.28-4 7.96-.54zm23.86-1.65l-7.95.55-.3-4 7.97-.54zm23.87-1.65l-7.95.55-.27-4 7.95-.54zM473.2 620l-7.96.57-.28-4 7.96-.55zm23.86-1.64l-7.95.55-.3-3.98 7.97-.55zm23.87-1.65l-7.95.56-.27-4 7.95-.54zm23.87-1.64l-7.95.55-.28-3.98 7.96-.55zm23.87-1.66l-7.95.56-.3-4 7.96-.55zm23.87-1.65l-7.95.55-.27-4 7.95-.54zm23.87-1.65l-7.95.55-.28-4 7.96-.54zm23.87-1.65l-7.96.55-.27-4 7.96-.54zm23.87-1.66l-7.95.55-.28-4 7.96-.55zm23.87-1.66l-7.95.55-.28-4 7.96-.55zm23.87-1.65l-7.96.54-.27-4 7.96-.54zm47.73-3.32l-7.95.56-.28-4 7.95-.55zm23.87-1.65l-7.96.55-.27-4 7.96-.54zm23.86-1.65l-7.95.55-.28-4 7.96-.54zm23.87-1.65l-7.96.55-.26-4 7.95-.54zm23.87-1.66l-7.96.56-.28-4 7.96-.55zm23.86-1.65l-7.95.55-.28-4 7.96-.54zm23.87-1.65l-7.96.55-.26-4 7.95-.54zm23.87-1.65l-7.96.55-.28-4 7.96-.54zm23.86-1.66l-7.95.56-.28-4 7.96-.55zm23.87-1.65l-7.96.56-.26-4 7.95-.54zm23.86-1.64l-7.95.55-.28-3.98 7.96-.55zm23.87-1.65l-7.95.56-.28-4 7.95-.54zm23.87-1.65l-7.96.56-.26-3.98 7.95-.56zm23.86-1.65l-7.95.55-.28-4 7.96-.54zm23.87-1.65l-7.96.55-.27-4 7.95-.54zm23.87-1.65l-7.96.55-.27-4 7.96-.54zm19.88-1.38l-3.97.28-.28-4 3.98-.27z" fill="#ef8d22"/><path d="M302.18 631.85L300 632v-4l1.9-.14zM1153.54 570.9l-13.9 5.6-.65-9.24z" fill="#ef8d22"/><path d="M1160 570.45l-22.17 8.95-1.02-14.75zm-18.56 3.18l5.65-2.28-5.92-1.48z" fill="#ef8d22"/><use xlink:href="#v" transform="matrix(1,0,0,1,720.4074074074075,584.2272727272727) translate(0.005000000000000782 21.333333333333336)"/><path d="M1021.74 249.17l180.34 103.18" fill="none"/><path d="M1021.74 249.17l22.54 12.9m22.54 12.9l90.18 51.58m22.54 12.9l22.54 12.9" stroke="#0c7cba" stroke-width="4" fill="none"/><path d="M1022.77 247.46l-1.98 3.48-.8-.45v-4.62z" fill="#0c7cba"/><path d="M1216.2 360.42l-14.68-3.06 4.6-8.04z" stroke="#0c7cba" stroke-width="4" fill="#0c7cba"/><path d="M1203.85 526.83l-2.18 3.35-22.64-14.73 2.2-3.35zm-45.27-29.47l-2.18 3.35-90.54-58.92 2.18-3.35zM1045.4 423.7l-2.18 3.35-22.63-14.74 2.17-3.34z" fill="#0c7cba"/><path d="M1022.8 409l-2.17 3.34-.63-.4v-4.78zM1216.4 537.38l-14.5-3.9 5.07-7.77z" fill="#0c7cba"/><path d="M1221.82 540.9l-23.1-6.2 8.07-12.4zm-16.73-8.64l5.87 1.6-3.83-4.75z" fill="#0c7cba"/><defs><filter id="a" filterUnits="objectBoundingBox" x="-.02" y="-.01" width="1.04" height="1.05"><feOffset result="offOut" in="SourceAlpha" dy="6"/><feGaussianBlur result="blurOut" in="offOut" stdDeviation="5"/><feColorMatrix result="colorOut" in="blurOut" values="0 0 0 0 0 0 0 0 0 0 0 0 0 0 0 0 0 0 0.16862745098039217 0"/><feBlend in="SourceGraphic" in2="colorOut"/></filter><path fill="#3d4752" d="M52-115c0 93 80 130 150 87l7-35h11l-1 55c-23 7-52 12-83 12C60 4 19-37 15-115c-5-113 97-141 201-114l1 51h-12l-5-30c-15-9-39-16-62-16-66 0-86 41-86 109" id="w"/><use transform="matrix(0.07407407407407408,0,0,0.07407407407407408,0,0)" xlink:href="#w" id="c"/><filter id="b" filterUnits="objectBoundingBox" x="-.17" y="-.07" width="1.33" height="1.33"><feOffset result="offOut" in="SourceAlpha" dy="6"/><feGaussianBlur result="blurOut" in="offOut" stdDeviation="5"/><feColorMatrix result="colorOut" in="blurOut" values="0 0 0 0 0 0 0 0 0 0 0 0 0 0 0 0 0 0 0.16862745098039217 0"/><feBlend in="SourceGraphic" in2="colorOut"/></filter><path fill="#3d4752" d="M15-236h35l-11 85H26" id="x"/><g id="d"><use transform="matrix(0.07407407407407408,0,0,0.07407407407407408,0,0)" xlink:href="#w"/><use transform="matrix(0.07407407407407408,0,0,0.07407407407407408,17.77777777777778,0)" xlink:href="#x"/></g><path fill="#3d4752" d="M103-236c-39-15-35 32-34 71h44v15H69v136l35 6v8H15v-8l25-6v-136H11v-9l29-7c-6-59 23-100 80-84v36c-15 2-12-14-17-22" id="y"/><use transform="matrix(0.07407407407407408,0,0,0.07407407407407408,0,0)" xlink:href="#y" id="e"/><path fill="#3d4752" d="M67-92c-6 74 69 96 125 60l13-39h15l-11 60C128 16 12 10 12-93c0-122 110-166 231-136l-9 59h-15v-34c-11-9-30-16-51-16-69 4-96 57-101 128" id="z"/><use transform="matrix(0.1111111111111111,0,0,0.1111111111111111,0,0)" xlink:href="#z" id="g"/><filter id="f" filterUnits="objectBoundingBox" x="-.04" y="-.07" width="1.08" height="1.33"><feOffset result="offOut" in="SourceAlpha" dy="6"/><feGaussianBlur result="blurOut" in="offOut" stdDeviation="5"/><feColorMatrix result="colorOut" in="blurOut" values="0 0 0 0 0 0 0 0 0 0 0 0 0 0 0 0 0 0 0.16862745098039217 0"/><feBlend in="SourceGraphic" in2="colorOut"/></filter><filter id="h" filterUnits="objectBoundingBox" x="-.01" y="-.01" width="1.03" height="1.03"><feOffset result="offOut" in="SourceAlpha" dy="6"/><feGaussianBlur result="blurOut" in="offOut" stdDeviation="5"/><feColorMatrix result="colorOut" in="blurOut" values="0 0 0 0 0 0 0 0 0 0 0 0 0 0 0 0 0 0 0.16862745098039217 0"/><feBlend in="SourceGraphic" in2="colorOut"/></filter><path fill="#d1bcd2" d="M75-106v92l39 5v9H13v-9l28-5v-208l-31-4v-10h177v57h-11l-6-38c-28-4-63-3-95-3v98h69l5-28h11v73h-11l-5-29H75" id="A"/><path fill="#d1bcd2" d="M52-115c0 93 80 130 150 87l7-35h11l-1 55c-23 7-52 12-83 12C60 4 19-37 15-115c-5-113 97-141 201-114l1 51h-12l-5-30c-15-9-39-16-62-16-66 0-86 41-86 109" id="B"/><g id="j"><use transform="matrix(0.07407407407407408,0,0,0.07407407407407408,0,0)" xlink:href="#A"/><use transform="matrix(0.07407407407407408,0,0,0.07407407407407408,14.814814814814817,0)" xlink:href="#B"/></g><filter id="i" filterUnits="objectBoundingBox" x="-.12" y="-.07" width="1.24" height="1.35"><feOffset result="offOut" in="SourceAlpha" dy="6"/><feGaussianBlur result="blurOut" in="offOut" stdDeviation="5"/><feColorMatrix result="colorOut" in="blurOut" values="0 0 0 0 0 0 0 0 0 0 0 0 0 0 0 0 0 0 0.16862745098039217 0"/><feBlend in="SourceGraphic" in2="colorOut"/></filter><path fill="#b391b5" d="M75-106v92l39 5v9H13v-9l28-5v-208l-31-4v-10h177v57h-11l-6-38c-28-4-63-3-95-3v98h69l5-28h11v73h-11l-5-29H75" id="C"/><path fill="#b391b5" d="M52-115c0 93 80 130 150 87l7-35h11l-1 55c-23 7-52 12-83 12C60 4 19-37 15-115c-5-113 97-141 201-114l1 51h-12l-5-30c-15-9-39-16-62-16-66 0-86 41-86 109" id="D"/><path fill="#b391b5" d="M15-236h35l-11 85H26" id="E"/><g id="l"><use transform="matrix(0.07407407407407408,0,0,0.07407407407407408,0,0)" xlink:href="#C"/><use transform="matrix(0.07407407407407408,0,0,0.07407407407407408,14.814814814814817,0)" xlink:href="#D"/><use transform="matrix(0.07407407407407408,0,0,0.07407407407407408,32.592592592592595,0)" xlink:href="#E"/></g><filter id="k" filterUnits="objectBoundingBox" x="-.12" y="-.07" width="1.24" height="1.34"><feOffset result="offOut" in="SourceAlpha" dy="6"/><feGaussianBlur result="blurOut" in="offOut" stdDeviation="5"/><feColorMatrix result="colorOut" in="blurOut" values="0 0 0 0 0 0 0 0 0 0 0 0 0 0 0 0 0 0 0.16862745098039217 0"/><feBlend in="SourceGraphic" in2="colorOut"/></filter><path fill="#d1bcd2" d="M103-236c-39-15-35 32-34 71h44v15H69v136l35 6v8H15v-8l25-6v-136H11v-9l29-7c-6-59 23-100 80-84v36c-15 2-12-14-17-22" id="F"/><g id="m"><use transform="matrix(0.07407407407407408,0,0,0.07407407407407408,0,0)" xlink:href="#A"/><use transform="matrix(0.07407407407407408,0,0,0.07407407407407408,14.814814814814817,0)" xlink:href="#F"/></g><path fill="#3d4752" d="M83-20c80 9 114-41 114-116 0-55-25-82-80-80zm169-119C251-34 178 11 65 0H-3l2-13 32-5 35-200-29-5 2-13c105-2 214-6 213 97" id="G"/><use transform="matrix(0.1111111111111111,0,0,0.1111111111111111,0,0)" xlink:href="#G" id="o"/><filter id="n" filterUnits="objectBoundingBox" x="-.03" y="-.04" width="1.05" height="1.2"><feOffset result="offOut" in="SourceAlpha" dy="6"/><feGaussianBlur result="blurOut" in="offOut" stdDeviation="5"/><feColorMatrix result="colorOut" in="blurOut" values="0 0 0 0 0 0 0 0 0 0 0 0 0 0 0 0 0 0 0.16862745098039217 0"/><feBlend in="SourceGraphic" in2="colorOut"/></filter><path fill="#3d4752" d="M75-106v92l39 5v9H13v-9l28-5v-208l-31-4v-10h177v57h-11l-6-38c-28-4-63-3-95-3v98h69l5-28h11v73h-11l-5-29H75" id="H"/><use transform="matrix(0.07407407407407408,0,0,0.07407407407407408,0,0)" xlink:href="#H" id="p"/><path fill="#ef8d22" d="M52-115c0 90 69 126 140 93v-67l-30-5v-9h87v9l-23 5v77c-27 8-56 16-90 16C59 2 15-37 15-115c-1-82 41-123 122-123 31 0 59 4 83 10v51h-12l-5-29c-15-12-38-18-65-18-66-1-86 42-86 109" id="I"/><path fill="#ef8d22" d="M52-115c0 93 80 130 150 87l7-35h11l-1 55c-23 7-52 12-83 12C60 4 19-37 15-115c-5-113 97-141 201-114l1 51h-12l-5-30c-15-9-39-16-62-16-66 0-86 41-86 109" id="J"/><g id="r"><use transform="matrix(0.07407407407407408,0,0,0.07407407407407408,0,0)" xlink:href="#I"/><use transform="matrix(0.07407407407407408,0,0,0.07407407407407408,19.185185185185187,0)" xlink:href="#J"/></g><filter id="q" filterUnits="objectBoundingBox" x="-.08" y="-.07" width="1.16" height="1.35"><feOffset result="offOut" in="SourceAlpha" dy="6"/><feGaussianBlur result="blurOut" in="offOut" stdDeviation="5"/><feColorMatrix result="colorOut" in="blurOut" values="0 0 0 0 0 0 0 0 0 0 0 0 0 0 0 0 0 0 0.16862745098039217 0"/><feBlend in="SourceGraphic" in2="colorOut"/></filter><path fill="#ef8d22" d="M15-236h35l-11 85H26" id="K"/><g id="t"><use transform="matrix(0.07407407407407408,0,0,0.07407407407407408,0,0)" xlink:href="#I"/><use transform="matrix(0.07407407407407408,0,0,0.07407407407407408,19.185185185185187,0)" xlink:href="#J"/><use transform="matrix(0.07407407407407408,0,0,0.07407407407407408,36.96296296296296,0)" xlink:href="#K"/></g><filter id="s" filterUnits="objectBoundingBox" x="-.08" y="-.07" width="1.16" height="1.34"><feOffset result="offOut" in="SourceAlpha" dy="6"/><feGaussianBlur result="blurOut" in="offOut" stdDeviation="5"/><feColorMatrix result="colorOut" in="blurOut" values="0 0 0 0 0 0 0 0 0 0 0 0 0 0 0 0 0 0 0.16862745098039217 0"/><feBlend in="SourceGraphic" in2="colorOut"/></filter><path fill="#ef8d22" d="M103-236c-39-15-35 32-34 71h44v15H69v136l35 6v8H15v-8l25-6v-136H11v-9l29-7c-6-59 23-100 80-84v36c-15 2-12-14-17-22" id="L"/><g id="u"><use transform="matrix(0.07407407407407408,0,0,0.07407407407407408,0,0)" xlink:href="#I"/><use transform="matrix(0.07407407407407408,0,0,0.07407407407407408,19.185185185185187,0)" xlink:href="#L"/></g><use transform="matrix(0.07407407407407408,0,0,0.07407407407407408,0,0)" xlink:href="#I" id="v"/></defs></g></svg>