<svg xmlns="http://www.w3.org/2000/svg" xmlns:xlink="http://www.w3.org/1999/xlink" xmlns:lucid="lucid" width="345.64" height="261.09"><g transform="translate(-915.3636363636364 -199)" lucid:page-tab-id="mDeabCaa_HUg"><g filter="url(#a)"><path d="M936.36 220H1020v56.36h-83.64z" stroke="#494949" stroke-width="4" fill="#fff" fill-opacity="0"/><use xlink:href="#b" transform="matrix(1,0,0,1,941.3636363636364,225) translate(20.703703703703702 28.833333333333336)"/></g><g filter="url(#c)"><path d="M936.36 380H1020v59.1h-83.64z" stroke="#494949" stroke-width="4" fill="#fff" fill-opacity="0"/><use xlink:href="#d" transform="matrix(1,0,0,1,941.3636363636364,385) translate(18.333333333333332 30.333333333333336)"/></g><path d="M980.18 355.26h-4v-11.08h4zm0-43.08h-4v-31.82h4z" fill="#494949"/><path d="M980.18 280.4h-4v-2.04h4zM978.18 371.53l-4.63-14.27h9.27z" fill="#494949"/><path d="M978.18 378l-7.4-22.74h14.8zm-1.88-18.74l1.88 5.8 1.88-5.8z" fill="#494949"/><use xlink:href="#e" transform="matrix(1,0,0,1,966.3670033670033,312.181818) translate(0.005000000000000782 21.333333333333336)"/><g filter="url(#f)"><path d="M1180 220h60v56.36h-60z" stroke="#494949" stroke-width="4" fill="#fff" fill-opacity="0"/><use xlink:href="#g" transform="matrix(1,0,0,1,1185,225) translate(7.018518518518519 28.833333333333336)"/></g><g filter="url(#h)"><path d="M1180 380h60v59.1h-60z" stroke="#494949" stroke-width="4" fill="#fff" fill-opacity="0"/><use xlink:href="#i" transform="matrix(1,0,0,1,1185,385) translate(4.648148148148149 30.333333333333336)"/></g><path d="M1212 355.26h-4v-34.93h4zm0-66.93h-4v-7.97h4z" fill="#494949"/><path d="M1212 280.4h-4v-2.04h4zM1210 371.53l-4.64-14.27h9.28z" fill="#494949"/><path d="M1210 378l-7.4-22.74h14.8zm-1.88-18.74l1.88 5.8 1.88-5.8z" fill="#494949"/><use xlink:href="#j" transform="matrix(1,0,0,1,1196,288.3315805509921) translate(0.005000000000000782 21.333333333333336)"/><path d="M1040.4 250.18H1024v-4h16.4zm29.66 0h-13.24v-4h13.24zm85.2 0h-16.4v-4h16.4zm-32.8 0h-30.22v-4h30.2z" fill="#494949"/><path d="M1024.05 250.18H1022v-4h2.05zM1171.53 248.18l-14.27 4.64v-9.27z" fill="#494949"/><path d="M1178 248.18l-22.74 7.4v-14.8zm-18.74 1.88l5.8-1.88-5.8-1.88z" fill="#494949"/><use xlink:href="#k" transform="matrix(1,0,0,1,1070.0648148204589,232.1818181818182) translate(0.005000000000000782 21.333333333333336)"/><path d="M1040.4 411.55H1024v-4h16.4zm38.4 0h-21.98v-4h22zm76.46 0h-16.4v-4h16.4zm-32.8 0h-18.17v-4h18.15z" fill="#494949"/><path d="M1024.05 411.55H1022v-4h2.05zM1171.53 409.55l-14.27 4.63v-9.27z" fill="#494949"/><path d="M1178 409.55l-22.74 7.38v-14.77zm-18.74 1.88l5.8-1.88-5.8-1.9z" fill="#494949"/><use xlink:href="#l" transform="matrix(1,0,0,1,1078.8055555605933,393.5454545454545) translate(0.005000000000000782 21.333333333333336)"/><defs><path fill="#3d4752" d="M75-106v92l39 5v9H13v-9l28-5v-208l-31-4v-10h177v57h-11l-6-38c-28-4-63-3-95-3v98h69l5-28h11v73h-11l-5-29H75" id="m"/><path fill="#3d4752" d="M52-115c0 93 80 130 150 87l7-35h11l-1 55c-23 7-52 12-83 12C60 4 19-37 15-115c-5-113 97-141 201-114l1 51h-12l-5-30c-15-9-39-16-62-16-66 0-86 41-86 109" id="n"/><g id="b"><use transform="matrix(0.07407407407407408,0,0,0.07407407407407408,0,0)" xlink:href="#m"/><use transform="matrix(0.07407407407407408,0,0,0.07407407407407408,14.814814814814817,0)" xlink:href="#n"/></g><filter id="a" filterUnits="objectBoundingBox" x="-.12" y="-.07" width="1.24" height="1.35"><feOffset result="offOut" in="SourceAlpha" dy="6"/><feGaussianBlur result="blurOut" in="offOut" stdDeviation="5"/><feColorMatrix result="colorOut" in="blurOut" values="0 0 0 0 0 0 0 0 0 0 0 0 0 0 0 0 0 0 0.16862745098039217 0"/><feBlend in="SourceGraphic" in2="colorOut"/></filter><path fill="#3d4752" d="M15-236h35l-11 85H26" id="o"/><g id="d"><use transform="matrix(0.07407407407407408,0,0,0.07407407407407408,0,0)" xlink:href="#m"/><use transform="matrix(0.07407407407407408,0,0,0.07407407407407408,14.814814814814817,0)" xlink:href="#n"/><use transform="matrix(0.07407407407407408,0,0,0.07407407407407408,32.592592592592595,0)" xlink:href="#o"/></g><filter id="c" filterUnits="objectBoundingBox" x="-.12" y="-.07" width="1.24" height="1.34"><feOffset result="offOut" in="SourceAlpha" dy="6"/><feGaussianBlur result="blurOut" in="offOut" stdDeviation="5"/><feColorMatrix result="colorOut" in="blurOut" values="0 0 0 0 0 0 0 0 0 0 0 0 0 0 0 0 0 0 0.16862745098039217 0"/><feBlend in="SourceGraphic" in2="colorOut"/></filter><path fill="#3d4752" d="M103-236c-39-15-35 32-34 71h44v15H69v136l35 6v8H15v-8l25-6v-136H11v-9l29-7c-6-59 23-100 80-84v36c-15 2-12-14-17-22" id="p"/><g id="e"><use transform="matrix(0.07407407407407408,0,0,0.07407407407407408,0,0)" xlink:href="#m"/><use transform="matrix(0.07407407407407408,0,0,0.07407407407407408,14.814814814814817,0)" xlink:href="#p"/></g><path fill="#3d4752" d="M52-115c0 90 69 126 140 93v-67l-30-5v-9h87v9l-23 5v77c-27 8-56 16-90 16C59 2 15-37 15-115c-1-82 41-123 122-123 31 0 59 4 83 10v51h-12l-5-29c-15-12-38-18-65-18-66-1-86 42-86 109" id="q"/><g id="g"><use transform="matrix(0.07407407407407408,0,0,0.07407407407407408,0,0)" xlink:href="#q"/><use transform="matrix(0.07407407407407408,0,0,0.07407407407407408,19.185185185185187,0)" xlink:href="#n"/></g><filter id="f" filterUnits="objectBoundingBox" x="-.17" y="-.07" width="1.33" height="1.35"><feOffset result="offOut" in="SourceAlpha" dy="6"/><feGaussianBlur result="blurOut" in="offOut" stdDeviation="5"/><feColorMatrix result="colorOut" in="blurOut" values="0 0 0 0 0 0 0 0 0 0 0 0 0 0 0 0 0 0 0.16862745098039217 0"/><feBlend in="SourceGraphic" in2="colorOut"/></filter><g id="i"><use transform="matrix(0.07407407407407408,0,0,0.07407407407407408,0,0)" xlink:href="#q"/><use transform="matrix(0.07407407407407408,0,0,0.07407407407407408,19.185185185185187,0)" xlink:href="#n"/><use transform="matrix(0.07407407407407408,0,0,0.07407407407407408,36.96296296296296,0)" xlink:href="#o"/></g><filter id="h" filterUnits="objectBoundingBox" x="-.17" y="-.07" width="1.33" height="1.34"><feOffset result="offOut" in="SourceAlpha" dy="6"/><feGaussianBlur result="blurOut" in="offOut" stdDeviation="5"/><feColorMatrix result="colorOut" in="blurOut" values="0 0 0 0 0 0 0 0 0 0 0 0 0 0 0 0 0 0 0.16862745098039217 0"/><feBlend in="SourceGraphic" in2="colorOut"/></filter><g id="j"><use transform="matrix(0.07407407407407408,0,0,0.07407407407407408,0,0)" xlink:href="#q"/><use transform="matrix(0.07407407407407408,0,0,0.07407407407407408,19.185185185185187,0)" xlink:href="#p"/></g><path fill="#3d4752" d="M82-170c37-1 46 24 59 49l12-44h28c-7 29-24 51-31 80 5 28 13 52 22 74 5 1 10 3 8 11h-37c-5-15-6-34-13-48-14 25-25 52-61 52-42 0-56-37-55-84 1-52 19-88 68-90zm3 14c-52-3-54 135-9 142 35-3 39-39 51-67-7-35-6-73-42-75" id="r"/><path fill="#3d4752" d="M45-84c0 64 52 80 104 63 1 25-30 25-55 25-56 0-80-32-80-88 0-76 62-98 131-80v46h-10c-5-15-4-31-23-35-47-10-67 21-67 69" id="s"/><g id="k"><use transform="matrix(0.07407407407407408,0,0,0.07407407407407408,0,0)" xlink:href="#r"/><use transform="matrix(0.05185185185185186,0,0,0.05185185185185186,13.925925925925927,3.733333333333334)" xlink:href="#s"/></g><g id="l"><use transform="matrix(0.07407407407407408,0,0,0.07407407407407408,0,0)" xlink:href="#r"/><use transform="matrix(0.05185185185185186,0,0,0.05185185185185186,13.925925925925927,3.733333333333334)" xlink:href="#s"/><use transform="matrix(0.05185185185185186,0,0,0.05185185185185186,22.17037037037037,3.733333333333334)" xlink:href="#o"/></g></defs></g></svg>