<svg xmlns="http://www.w3.org/2000/svg" xmlns:xlink="http://www.w3.org/1999/xlink" xmlns:lucid="lucid" width="842" height="1062"><g transform="translate(-79 381)" lucid:page-tab-id="YGcM5DNywbTK"><path d="M270.4 642H162v-4h108.4zm127.6 0H289.6v-4H398z" fill="#0c7cba"/><path d="M162.05 642H160v-4h2.05zM400 642h-2.05v-4H400z" fill="#0c7cba"/><use xlink:href="#a" transform="matrix(1,0,0,1,270.4074074074074,624) translate(0.005000000000000782 21.333333333333336)"/><path d="M731.1 642H622v-4h109.1zm126.9 0H748.9v-4H858z" fill="#ef8d22"/><path d="M622.05 642H620v-4h2.05zM860 642h-2.05v-4H860z" fill="#ef8d22"/><use xlink:href="#b" transform="matrix(1,0,0,1,731.1111111111111,624) translate(0.005000000000000782 21.333333333333336)"/><path d="M420-80h160V80H420z" stroke="#3d4752" stroke-width="4" fill="#fff" filter="url(#c)"/><path d="M501.02 84.64L263.9 620.02l-3.67-1.62L497.36 83.02z" fill="#0c7cba"/><path d="M501 84.7l-3.66-1.63.47-1.07h4.4zM265.5 622.92l-10.02 11.16 1.54-14.92z" fill="#0c7cba"/><path d="M268.82 622.2L252.86 640l2.45-23.78zm-10.72 5.96l4.06-4.53-3.44-1.53z" fill="#0c7cba"/><path d="M742.84 618.44l-3.65 1.63L499 84.64l3.64-1.63z" fill="#fcc438"/><path d="M502.66 83.05L499 84.7l-1.2-2.7h4.4zM746.6 624h-8.06l-.93-1.02 8.47-3.8z" fill="#fcc438"/><path d="M750.33 640l-1.44-1.6v-11.7zm-1.73-16h-4.02l-.2-1.87-3.44 1.54.3.33h-5.4l-1.56-1.72 13.48-6.05z" fill="#fcc438"/><path d="M260-280c0 44.18-35.82 80-80 80s-80-35.82-80-80 35.82-80 80-80 80 35.82 80 80z" stroke="#3d4752" stroke-width="4" fill="#fff" filter="url(#c)"/><path d="M253.88 617.17l-3.98.36-71.72-813.36 4-.35z" fill="#0c7cba"/><path d="M179.97-198h.75l1.28-.05.17 1.92-3.98.35-.2-2.28zM253.32 633.55l-5.87-13.8 9.23-.8z" fill="#0c7cba"/><path d="M253.9 640l-9.37-22 14.72-1.3zm-3.54-18.5l2.4 5.6 1.35-5.93z" fill="#0c7cba"/><path d="M733.1 620.02l-3.3 2.23-550.34-817.47 3.32-2.24z" fill="#fcc438"/><path d="M179.97-198h.75l1.65-.07.43.65-3.3 2.24-1.96-2.9zM737.5 624h-6.4v3.26l-2.38-1.87 7.7-5.2z" fill="#fcc438"/><path d="M739.57 624h-4.16l-.16-.6-.88.6h-3.25v5.8l-5.78-4.54 12.26-8.25z" fill="#fcc438"/><path d="M740-360h160v160H740z" stroke="#3d4752" stroke-width="4" fill="#fff" filter="url(#c)"/><path d="M780-300h20v-20h40v20h20v40h-20v20h-40v-20h-20z" stroke="#494949" stroke-width="4" fill-opacity="0" filter="url(#d)"/><path d="M820.54-195.22L269.3 622.28l-3.33-2.25 551.25-817.5z" fill="#0c7cba"/><path d="M820.5-195.18l-3.3-2.24.4-.58h4.8zM270.35 625.4l-11.82 9.23 4.14-14.42z" fill="#0c7cba"/><path d="M271.86 624h-1.45v3.9L254.93 640l6.58-22.98zm-9.7 5.27l4.8-3.75-3.13-2.1z" fill="#0c7cba"/><path d="M821.82-195.84L753.2 617.5l-4-.33 68.64-813.35z" fill="#fcc438"/><path d="M821.82-195.8l-4-.32.17-1.88h4zM755.66 619.73l-5.82 13.82-.95-4.06V624h-1.3l-1.18-5.05z" fill="#fcc438"/><path d="M758.57 617.96L749.3 640l-.4-1.74V624h-3.35l-1.7-7.28zm-8.2 9.14l2.38-5.6-3.75-.33z" fill="#fcc438"/><path d="M479.3-91.63l-1.36 3.76-5.56-2.02 1.36-3.75zm-12.98-4.7l-1.36 3.76-11.13-4.04 1.36-3.77zm-18.54-6.73l-1.37 3.76-11.12-4.03 1.37-3.76zm-18.55-6.72l-1.36 3.76-11.13-4.03 1.36-3.77zm-18.55-6.72l-1.36 3.76-11.13-4.04 1.36-3.76zm-18.54-6.73l-1.37 3.76-11.12-4.03 1.36-3.76zm-18.55-6.72l-1.37 3.76-11.13-4.02 1.36-3.76zm-18.56-6.72l-1.36 3.76-7.07-2.58v-4.25zm-21.65-7.85v4.25l-9.4-3.4 1.37-3.76zm-15.45-5.6l-1.36 3.76-11.14-4.03 1.36-3.75zm-18.55-6.72l-1.36 3.76-11.13-4.04 1.38-3.76zm-18.54-6.73l-1.37 3.76-11.13-4.04 1.36-3.76zm-18.55-6.72l-1.35 3.77-11.13-4.03 1.36-3.76zm-18.53-6.7l-1.37 3.75-11.13-4.04 1.37-3.75zm-18.55-6.74l-1.36 3.76-11.13-4.03 1.36-3.77zm-18.55-6.72l-1.36 3.76-11.12-4.03 1.36-3.76zm-18.54-6.72l-1.37 3.76-5.56-2.02 1.36-3.76z" fill="#494949"/><path d="M179.97-198h.75l1.48-.06-.95 2.64-4.75-1.72.34-.96zM493.92-84.2l-15-.5 3.16-8.73z" fill="#494949"/><path d="M500-82l-23.9-.8 5.04-13.9zm-18.26-4.62l6.1.2-4.8-3.74z" fill="#494949"/><use xlink:href="#e" transform="matrix(1,0,0,1,333.3888888888889,-163.9999914353565) translate(0.004999999999999893 32)"/><path d="M527.62-89.9l-5.56 2.03-1.36-3.76 5.56-2.02zm18.55-6.7l-11.13 4.03-1.36-3.77 11.13-4.03zm18.55-6.73L553.6-99.3l-1.38-3.76 11.13-4.03zm18.54-6.72l-11.13 4.03-1.36-3.76 11.13-4.04zm18.55-6.73l-11.12 4.04-1.36-3.76 11.12-4.04zm12.13-4.4l-4.7 1.7-1.37-3.75 6.07-2.2zm24.97-9.04l-4.97 1.8v-4.26l3.6-1.3zm18.55-6.73l-11.13 4.04-1.36-3.77 11.12-4.04zm18.54-6.72l-11.13 4.03-1.37-3.76 11.13-4.03zm18.54-6.72l-11.13 4.04-1.35-3.76 11.13-4.03zm18.55-6.72l-11.14 4.04-1.36-3.76 11.12-4.04zm18.53-6.72l-11.12 4.03-1.36-3.77 11.13-4.03zm18.55-6.72l-11.13 4.03-1.36-3.76 11.12-4.02zm18.55-6.73l-11.13 4.05-1.37-3.76 11.13-4.05zm18.54-6.7L776.14-180l-1.36-3.76 11.13-4.03zm18.55-6.73l-11.13 4.03-1.37-3.76 11.13-4.03zm12.98-4.7l-5.56 2-1.37-3.75 5.57-2.02z" fill="#494949"/><path d="M823.5-197.14l-4.75 1.72-.93-2.58h5.37zM521.08-84.7l-15 .5 11.84-9.23z" fill="#494949"/><path d="M523.9-82.8L500-82l18.86-14.7zm-11.73-3.6l6.1-.22-1.3-3.54z" fill="#494949"/><use xlink:href="#f" transform="matrix(1,0,0,1,613.9281687421035,-150.92396116901259) translate(0.005000000000000782 32)"/><defs><path fill="#3d4752" d="M81-9v9H4v-9l26-5 81-224h33l83 224 30 5v9h-99v-9l31-5-23-68H73L49-14zm38-203L78-98h82" id="g"/><use transform="matrix(0.07407407407407408,0,0,0.07407407407407408,0,0)" xlink:href="#g" id="a"/><path fill="#3d4752" d="M75-131c50 2 93 3 93-48 0-46-48-41-93-41v89zm0 115c55 4 111 6 111-51 0-53-58-48-111-48v99zm148-52C223 24 102-3 10 0v-9l31-5v-208l-31-4v-10c77 6 193-24 194 56 0 33-20 48-48 54 36 5 67 20 67 58" id="h"/><use transform="matrix(0.07407407407407408,0,0,0.07407407407407408,0,0)" xlink:href="#h" id="b"/><filter id="c" filterUnits="objectBoundingBox" x="-.06" y="-.03" width="1.13" height="1.13"><feOffset result="offOut" in="SourceAlpha" dy="6"/><feGaussianBlur result="blurOut" in="offOut" stdDeviation="5"/><feColorMatrix result="colorOut" in="blurOut" values="0 0 0 0 0 0 0 0 0 0 0 0 0 0 0 0 0 0 0.16862745098039217 0"/><feBlend in="SourceGraphic" in2="colorOut"/></filter><filter id="d" filterUnits="objectBoundingBox" x="-.13" y="-.05" width="1.25" height="1.25"><feOffset result="offOut" in="SourceAlpha" dy="6"/><feGaussianBlur result="blurOut" in="offOut" stdDeviation="5"/><feColorMatrix result="colorOut" in="blurOut" values="0 0 0 0 0 0 0 0 0 0 0 0 0 0 0 0 0 0 0.16862745098039217 0"/><feBlend in="SourceGraphic" in2="colorOut"/></filter><path fill="#3d4752" d="M103-236c-39-15-35 32-34 71h44v15H69v136l35 6v8H15v-8l25-6v-136H11v-9l29-7c-6-59 23-100 80-84v36c-15 2-12-14-17-22" id="i"/><use transform="matrix(0.1111111111111111,0,0,0.1111111111111111,0,0)" xlink:href="#i" id="e"/><path fill="#3d4752" d="M141-152c28 39 5 97-54 97-9 0-20-2-27-3L49-35c29 22 130-14 124 52-4 45-38 57-88 61C21 83-8 26 45-2 33-6 22-15 21-31l28-31c-19-9-28-26-28-51-2-51 53-65 100-52l38-20 7 8zM85 64c35 0 61-11 61-42 0-35-57-17-89-21-9 8-16 19-17 34 0 25 19 29 45 29zM52-113c1 26 7 46 35 44 28-1 34-16 35-44 0-26-6-43-34-43s-36 17-36 43" id="j"/><use transform="matrix(0.1111111111111111,0,0,0.1111111111111111,0,0)" xlink:href="#j" id="f"/></defs></g></svg>