<svg xmlns="http://www.w3.org/2000/svg" xmlns:xlink="http://www.w3.org/1999/xlink" xmlns:lucid="lucid" width="682" height="350"><g transform="translate(-199 -11)" lucid:page-tab-id="oUA~hntwJ-3G"><g filter="url(#a)"><path d="M480 280h100v60H480z" stroke="#000" stroke-opacity="0" stroke-width="4" fill="#fff" fill-opacity="0"/><use xlink:href="#b" transform="matrix(1,0,0,1,485,285) translate(6.629629629629626 30.333333333333336)"/><use xlink:href="#c" transform="matrix(1,0,0,1,485,285) translate(39.81481481481481 30.333333333333336)"/></g><g filter="url(#d)"><path d="M220 292.5h60v35h-60z" stroke="#000" stroke-opacity="0" stroke-width="4" fill="#fff" fill-opacity="0"/><use xlink:href="#e" transform="matrix(1,0,0,1,225,297.5) translate(10.74074074074074 21.333333333333336)"/></g><path d="M368.63 312h-65.9v-4h65.9zM478 312h-86.63v-4H478z" fill="#494949"/><path d="M480 312h-2.05v-4H480zM300.74 314.64L286.47 310l14.27-4.64z" fill="#494949"/><path d="M302.74 317.4L280 310l22.74-7.4zm-9.8-7.4l5.8 1.88v-3.76z" fill="#494949"/><use xlink:href="#f" transform="matrix(1,0,0,1,368.6296296296296,294) translate(0.005000000000000782 21.333333333333336)"/><g filter="url(#d)"><path d="M800 292.5h60v35h-60z" stroke="#000" stroke-opacity="0" stroke-width="4" fill="#fff" fill-opacity="0"/><use xlink:href="#e" transform="matrix(1,0,0,1,805,297.5) translate(10.74074074074074 21.333333333333336)"/></g><path d="M662.62 312H582v-4h80.62zm114.64 0h-91.9v-4h91.9z" fill="#494949"/><path d="M582.05 312H580v-4h2.05zM793.53 310l-14.27 4.64v-9.28z" fill="#494949"/><path d="M800 310l-22.74 7.4v-14.8zm-18.74 1.88l5.8-1.88-5.8-1.88z" fill="#494949"/><use xlink:href="#g" transform="matrix(1,0,0,1,662.6239694844886,294) translate(0.005000000000000782 21.333333333333336)"/><g filter="url(#h)"><path d="M410 32h240v60H410z" stroke="#000" stroke-opacity="0" stroke-width="4" fill="#fff" fill-opacity="0"/><use xlink:href="#i" transform="matrix(1,0,0,1,415,37) translate(105.4074074074074 30.333333333333336)"/></g><path d="M532 257.26h-4v-6.12h4zm0-14.28h-4v-12.25h4zm0-20.4h-4V210.3h4zm0-20.42h-4V202h4zm0-32.16h-4v-.5h4zm0-8.65h-4V149.1h4zm0-20.4h-4v-12.26h4zm0-20.42h-4V108.3h4zm0-20.4h-4V94h4z" fill="#494949"/><path d="M532 94.05h-4V92h4zM530 273.53l-4.64-14.27h9.28z" fill="#494949"/><path d="M530 280l-7.4-22.74h14.8zm-1.88-18.74l1.88 5.8 1.88-5.8z" fill="#494949"/><use xlink:href="#j" transform="matrix(1,0,0,1,525.5925925925926,170) translate(0.004999999999999893 21.333333333333336)"/><path d="M407.2 182.4l-137.55 98.5-2.33-3.26L407.2 177.48zm122.34-87.6l-104.2 74.6v-4.92L527.2 91.54z" fill="#494949"/><path d="M529.5 94.82L527.48 92h5.96zM269.56 284.2l-14.3 4.53 8.9-12.07z" fill="#494949"/><path d="M272.8 285.27L250 292.5l14.2-19.24zm-12.28-.3l5.8-1.85-2.18-3.06z" fill="#494949"/><use xlink:href="#k" transform="matrix(1,0,0,1,407.19448302771804,157.43983678960956) translate(0.005000000000000782 21.333333333333336)"/><path d="M812.2 278.2l-2.22 3.33-148.1-98.98v-4.8zM643.75 165.6v4.82l-113.2-75.65 2.23-3.32z" fill="#494949"/><path d="M530.6 94.8l-4.2-2.8h6.07zM824.62 288.9l-14.44-4.07 5.15-7.7z" fill="#494949"/><path d="M830 292.5l-23-6.5 8.2-12.28zm-16.62-8.85l5.86 1.66-3.77-4.78z" fill="#494949"/><use xlink:href="#l" transform="matrix(1,0,0,1,643.7351794822623,158.0775177934848) translate(0.005000000000000782 21.333333333333336)"/><defs><path fill="#3d4752" d="M56-14l29 5v9H8v-9l26-5 80-107-68-101-27-4v-10h97v10l-30 4 49 73 55-73-29-4v-10h77v10l-26 4-66 88 81 120 26 5v9h-97v-9l30-5-62-91" id="m"/><path fill="#3d4752" d="M110-14l48 5v9H32v-9l48-5v-192l-48 17v-10l69-39h9v224" id="n"/><g id="b"><use transform="matrix(0.07407407407407408,0,0,0.07407407407407408,0,0)" xlink:href="#m"/><use transform="matrix(0.05185185185185186,0,0,0.05185185185185186,19.185185185185187,3.733333333333334)" xlink:href="#n"/></g><path fill="#3d4752" d="M102-107L41-46 28-59l61-61-61-60 13-13 61 60 60-60 13 13-61 60 61 61-13 13" id="o"/><path fill="#3d4752" d="M24-231c66-21 156 2 128 81C132-92 78-66 39-27h121V0H16v-26l59-54c26-25 47-47 47-97 0-48-47-57-81-37l-6 29H24v-46" id="p"/><g id="c"><use transform="matrix(0.07407407407407408,0,0,0.07407407407407408,0,0)" xlink:href="#o"/><use transform="matrix(0.07407407407407408,0,0,0.07407407407407408,15.03703703703704,0)" xlink:href="#m"/><use transform="matrix(0.05185185185185186,0,0,0.05185185185185186,34.22222222222223,3.733333333333334)" xlink:href="#p"/></g><filter id="a" filterUnits="objectBoundingBox" x="-.1" y="-.07" width="1.2" height="1.33"><feOffset result="offOut" in="SourceAlpha" dy="6"/><feGaussianBlur result="blurOut" in="offOut" stdDeviation="5"/><feColorMatrix result="colorOut" in="blurOut" values="0 0 0 0 0 0 0 0 0 0 0 0 0 0 0 0 0 0 0.16862745098039217 0"/><feBlend in="SourceGraphic" in2="colorOut"/></filter><g id="e"><use transform="matrix(0.07407407407407408,0,0,0.07407407407407408,0,0)" xlink:href="#m"/><use transform="matrix(0.05185185185185186,0,0,0.05185185185185186,19.185185185185187,3.733333333333334)" xlink:href="#n"/></g><filter id="d" filterUnits="objectBoundingBox" x="-.17" y="-.11" width="1.33" height="1.57"><feOffset result="offOut" in="SourceAlpha" dy="6"/><feGaussianBlur result="blurOut" in="offOut" stdDeviation="5"/><feColorMatrix result="colorOut" in="blurOut" values="0 0 0 0 0 0 0 0 0 0 0 0 0 0 0 0 0 0 0.16862745098039217 0"/><feBlend in="SourceGraphic" in2="colorOut"/></filter><path fill="#3d4752" d="M173-18c3 19-15 19-28 22-54-4-23-102-31-154H64L49 0H17c6-24 20-35 23-68l7-82H23c-5 8-2 25-18 22l4-37h167v15h-33v112c-3 21 14 27 30 20" id="q"/><g id="f"><use transform="matrix(0.07407407407407408,0,0,0.07407407407407408,0,0)" xlink:href="#q"/><use transform="matrix(0.05185185185185186,0,0,0.05185185185185186,13.407407407407408,3.733333333333334)" xlink:href="#n"/></g><g id="g"><use transform="matrix(0.07407407407407408,0,0,0.07407407407407408,0,0)" xlink:href="#q"/><use transform="matrix(0.05185185185185186,0,0,0.05185185185185186,13.407407407407408,3.733333333333334)" xlink:href="#p"/></g><path fill="#3d4752" d="M147-93v79l38 5v9H76v-9l37-5v-78L31-222l-27-4v-10h100v10l-32 4 68 109 64-109-30-4v-10h77v10l-26 4" id="r"/><use transform="matrix(0.07407407407407408,0,0,0.07407407407407408,0,0)" xlink:href="#r" id="i"/><filter id="h" filterUnits="objectBoundingBox" x="-.04" y="-.07" width="1.08" height="1.33"><feOffset result="offOut" in="SourceAlpha" dy="6"/><feGaussianBlur result="blurOut" in="offOut" stdDeviation="5"/><feColorMatrix result="colorOut" in="blurOut" values="0 0 0 0 0 0 0 0 0 0 0 0 0 0 0 0 0 0 0.16862745098039217 0"/><feBlend in="SourceGraphic" in2="colorOut"/></filter><path fill="#3d4752" d="M103-236c-39-15-35 32-34 71h44v15H69v136l35 6v8H15v-8l25-6v-136H11v-9l29-7c-6-59 23-100 80-84v36c-15 2-12-14-17-22" id="s"/><use transform="matrix(0.07407407407407408,0,0,0.07407407407407408,0,0)" xlink:href="#s" id="j"/><g id="k"><use transform="matrix(0.07407407407407408,0,0,0.07407407407407408,0,0)" xlink:href="#s"/><use transform="matrix(0.05185185185185186,0,0,0.05185185185185186,8.814814814814817,3.733333333333334)" xlink:href="#n"/></g><g id="l"><use transform="matrix(0.07407407407407408,0,0,0.07407407407407408,0,0)" xlink:href="#s"/><use transform="matrix(0.05185185185185186,0,0,0.05185185185185186,8.814814814814817,3.733333333333334)" xlink:href="#p"/></g></defs></g></svg>