<svg xmlns="http://www.w3.org/2000/svg" xmlns:xlink="http://www.w3.org/1999/xlink" xmlns:lucid="lucid" width="719.52" height="358.6"><g transform="translate(-186.33333333333331 -11)" lucid:page-tab-id="oUA~hntwJ-3G"><g filter="url(#a)"><path d="M480 271.4h100v77.2H480z" stroke="#000" stroke-opacity="0" stroke-width="4" fill="#fff" fill-opacity="0"/><use xlink:href="#b" transform="matrix(1,0,0,1,485,276.4) translate(-2.888888888888893 21.733333333333334)"/><use xlink:href="#c" transform="matrix(1,0,0,1,485,276.4) translate(-1.5555555555555571 56.93333333333334)"/></g><g filter="url(#d)"><path d="M220 292.5h60v35h-60z" stroke="#000" stroke-opacity="0" stroke-width="4" fill="#fff" fill-opacity="0"/><use xlink:href="#e" transform="matrix(1,0,0,1,225,297.5) translate(-15.666666666666671 21.333333333333336)"/></g><path d="M366.7 312h-63.96v-4h63.96zm111.3 0h-84.7v-4H478z" fill="#494949"/><path d="M480 312h-2.05v-4H480zM300.74 314.64L286.47 310l14.27-4.64z" fill="#494949"/><path d="M302.74 317.4L280 310l22.74-7.4zm-9.8-7.4l5.8 1.88v-3.76z" fill="#494949"/><use xlink:href="#f" transform="matrix(1,0,0,1,366.7037037037037,294) translate(0.005000000000000782 21.333333333333336)"/><g filter="url(#g)"><path d="M800 292.5h80v35h-80z" stroke="#000" stroke-opacity="0" stroke-width="4" fill="#fff" fill-opacity="0"/><use xlink:href="#h" transform="matrix(1,0,0,1,805,297.5) translate(-7.148148148148152 21.333333333333336)"/></g><path d="M655.48 312H582v-4h73.48zm121.78 0H692.5v-4h84.76z" fill="#494949"/><path d="M582.05 312H580v-4h2.05zM793.53 310l-14.27 4.64v-9.28z" fill="#494949"/><path d="M800 310l-22.74 7.4v-14.8zm-18.74 1.88l5.8-1.88-5.8-1.88z" fill="#494949"/><use xlink:href="#i" transform="matrix(1,0,0,1,655.4758213363405,294) translate(0.004999999999999005 21.333333333333336)"/><g filter="url(#j)"><path d="M410 32h240v60H410z" stroke="#000" stroke-opacity="0" stroke-width="4" fill="#fff" fill-opacity="0"/><use xlink:href="#e" transform="matrix(1,0,0,1,415,37) translate(74.33333333333333 30.333333333333336)"/></g><path d="M532 248.66h-4v-5.8h4zm0-13.53h-4v-11.6h4zm0-19.33h-4v-11.6h4zm0-50.1h-4v-.17h4zm0-7.9h-4v-11.6h4zm0-19.33h-4v-11.6h4zm0-19.34h-4v-11.6h4zm0-19.33h-4V94h4z" fill="#494949"/><path d="M532 94.05h-4V92h4zM530 264.93l-4.64-14.27h9.28z" fill="#494949"/><path d="M530 271.4l-7.4-22.74h14.8zm-1.88-18.74l1.88 5.8 1.88-5.8z" fill="#494949"/><use xlink:href="#k" transform="matrix(1,0,0,1,519.6296296296297,165.7) translate(0.005000000000000782 21.333333333333336)"/><path d="M405.9 183.33L269.65 280.9l-2.33-3.26L405.9 178.4zM529.54 94.8l-102.9 73.67v-4.92l100.57-72z" fill="#494949"/><path d="M529.5 94.82L527.48 92h5.96zM269.56 284.2l-14.3 4.53 8.9-12.07z" fill="#494949"/><path d="M272.8 285.27L250 292.5l14.2-19.24zm-12.28-.3l5.8-1.85-2.18-3.06z" fill="#494949"/><use xlink:href="#l" transform="matrix(1,0,0,1,405.89818673142173,157.43983678960956) translate(0.005000000000000782 21.333333333333336)"/><path d="M822 278.47l-2.18 3.36-141.86-91.75h7.36zm-186.15-120.4h-7.37l-97.9-63.3 2.2-3.36z" fill="#494949"/><path d="M530.64 94.8l-4.25-2.75 6.04-.05zM834.57 289l-14.5-3.87 5.03-7.78z" fill="#494949"/><path d="M840 292.5l-23.1-6.15 8.02-12.4zm-16.76-8.6l5.9 1.57-3.85-4.73z" fill="#494949"/><use xlink:href="#m" transform="matrix(1,0,0,1,621.2732657119178,158.0775177934848) translate(0.005000000000002558 21.333333333333336)"/><defs><path fill="#3d4752" d="M27 48v-298h80v8l-52 8V33l52 7v8H27" id="n"/><path fill="#3d4752" d="M125-118c4-37-41-34-68-26v132l23 4v8H8C5-13 21-9 28-12v-141c-7-3-23 1-20-12h47l2 13c31-23 98-29 98 31v109c7 3 23-1 20 12h-72v-8l22-4v-106" id="o"/><path fill="#3d4752" d="M124-13C89 8 26 15 26-45v-108c-8-3-24 2-21-12h50v118c-3 37 42 32 69 25v-131l-25-4v-8h54v153c8 3 24-2 21 12h-48" id="p"/><path fill="#3d4752" d="M126-118c4-37-42-32-68-25v131l24 4v8H8C5-13 21-9 28-12v-141c-7-3-23 1-20-12h48l1 13c22-15 77-30 92 2 32-22 104-36 104 29v109c8 3 24-2 21 12h-75v-8l25-4v-106c3-39-45-31-72-24 7 37 1 88 3 130l25 4v8h-78v-8l24-4v-106" id="q"/><path fill="#3d4752" d="M53-14c58 12 82-15 82-73 0-52-35-77-82-58v131zM89 4C64 4 42-2 24-9v-229l-24-4v-8h53l-1 94c48-33 114-4 114 69 0 57-23 91-77 91" id="r"/><path fill="#3d4752" d="M84-170c49 0 66 33 63 87H46c-8 60 38 80 95 63v10C128-2 108 4 88 4 34 4 14-29 14-84c-1-54 22-86 70-86zm33 73c12-57-57-82-69-24-1 7-2 15-2 24h71" id="s"/><path fill="#3d4752" d="M57-145c16-10 35-24 60-25v45c-19 1-8-30-40-17l-20 6v124l29 4v8H7v-8l21-4v-141c-8-3-24 2-21-12h48" id="t"/><path fill="#3d4752" d="M42-37c43 0 23 74-4 81-7 4-14 8-24 11V42c17-5 29-14 31-30C42-2 20 1 21-18c0-12 9-19 21-19" id="u"/><g id="b"><use transform="matrix(0.07407407407407408,0,0,0.07407407407407408,0,0)" xlink:href="#n"/><use transform="matrix(0.07407407407407408,0,0,0.07407407407407408,8.814814814814817,0)" xlink:href="#o"/><use transform="matrix(0.07407407407407408,0,0,0.07407407407407408,22.148148148148152,0)" xlink:href="#p"/><use transform="matrix(0.07407407407407408,0,0,0.07407407407407408,35.48148148148149,0)" xlink:href="#q"/><use transform="matrix(0.07407407407407408,0,0,0.07407407407407408,56.22222222222223,0)" xlink:href="#r"/><use transform="matrix(0.07407407407407408,0,0,0.07407407407407408,69.55555555555557,0)" xlink:href="#s"/><use transform="matrix(0.07407407407407408,0,0,0.07407407407407408,81.33333333333334,0)" xlink:href="#t"/><use transform="matrix(0.07407407407407408,0,0,0.07407407407407408,89.1111111111111,0)" xlink:href="#u"/></g><path fill="#3d4752" d="M90-170c52 0 76 32 76 87 0 54-24 87-77 87-51 0-75-34-75-87 0-54 24-87 76-87zM89-10c39 0 46-35 46-73 0-39-7-73-46-73-39 1-44 34-44 73s6 72 44 73" id="v"/><path fill="#3d4752" d="M65-12l28 4v8H7v-8l28-4v-226l-28-4v-8h58v238" id="w"/><path fill="#3d4752" d="M32-163c41-10 102-14 102 39v112c8 3 24-2 21 12h-45l-4-17C83 13 3 13 13-46c-2-50 45-50 92-51 4-36-5-70-42-56-6 2-12 4-16 6-4 7 0 23-15 20v-36zM42-47c0 41 41 33 63 22v-59c-34 1-63-1-63 37" id="x"/><path fill="#3d4752" d="M13 48v-8l52-7v-267l-52-8v-8h80V48H13" id="y"/><g id="c"><use transform="matrix(0.07407407407407408,0,0,0.07407407407407408,0,0)" xlink:href="#r"/><use transform="matrix(0.07407407407407408,0,0,0.07407407407407408,13.333333333333336,0)" xlink:href="#v"/><use transform="matrix(0.07407407407407408,0,0,0.07407407407407408,26.66666666666667,0)" xlink:href="#v"/><use transform="matrix(0.07407407407407408,0,0,0.07407407407407408,40.00000000000001,0)" xlink:href="#w"/><use transform="matrix(0.07407407407407408,0,0,0.07407407407407408,47.40740740740742,0)" xlink:href="#s"/><use transform="matrix(0.07407407407407408,0,0,0.07407407407407408,59.185185185185205,0)" xlink:href="#x"/><use transform="matrix(0.07407407407407408,0,0,0.07407407407407408,70.96296296296298,0)" xlink:href="#o"/><use transform="matrix(0.07407407407407408,0,0,0.07407407407407408,84.2962962962963,0)" xlink:href="#y"/></g><filter id="a" filterUnits="objectBoundingBox" x="-.1" y="-.05" width="1.2" height="1.26"><feOffset result="offOut" in="SourceAlpha" dy="6"/><feGaussianBlur result="blurOut" in="offOut" stdDeviation="5"/><feColorMatrix result="colorOut" in="blurOut" values="0 0 0 0 0 0 0 0 0 0 0 0 0 0 0 0 0 0 0.16862745098039217 0"/><feBlend in="SourceGraphic" in2="colorOut"/></filter><g id="e"><use transform="matrix(0.07407407407407408,0,0,0.07407407407407408,0,0)" xlink:href="#o"/><use transform="matrix(0.07407407407407408,0,0,0.07407407407407408,13.333333333333336,0)" xlink:href="#p"/><use transform="matrix(0.07407407407407408,0,0,0.07407407407407408,26.66666666666667,0)" xlink:href="#q"/><use transform="matrix(0.07407407407407408,0,0,0.07407407407407408,47.40740740740742,0)" xlink:href="#r"/><use transform="matrix(0.07407407407407408,0,0,0.07407407407407408,60.740740740740755,0)" xlink:href="#s"/><use transform="matrix(0.07407407407407408,0,0,0.07407407407407408,72.51851851851853,0)" xlink:href="#t"/></g><filter id="d" filterUnits="objectBoundingBox" x="-.17" y="-.11" width="1.33" height="1.57"><feOffset result="offOut" in="SourceAlpha" dy="6"/><feGaussianBlur result="blurOut" in="offOut" stdDeviation="5"/><feColorMatrix result="colorOut" in="blurOut" values="0 0 0 0 0 0 0 0 0 0 0 0 0 0 0 0 0 0 0.16862745098039217 0"/><feBlend in="SourceGraphic" in2="colorOut"/></filter><path fill="#3d4752" d="M103-236c-39-15-35 32-34 71h44v15H69v136l35 6v8H15v-8l25-6v-136H11v-9l29-7c-6-59 23-100 80-84v36c-15 2-12-14-17-22" id="z"/><path fill="#3d4752" d="M41-130c7 48 86 23 86 84 0 56-69 57-112 41v-40c20 0 9 29 31 31 35 19 77-26 41-50-27-18-72-13-72-59 0-50 58-52 100-41v36c-19 1-8-25-28-25-21-7-50-1-46 23" id="A"/><path fill="#3d4752" d="M54-38c-1 25 24 26 44 20v12C71 10 25 9 25-35v-115H4c-2-14 14-10 21-15l18-38h11v38h38v15H54v112" id="B"/><g id="f"><use transform="matrix(0.07407407407407408,0,0,0.07407407407407408,0,0)" xlink:href="#z"/><use transform="matrix(0.07407407407407408,0,0,0.07407407407407408,8.814814814814817,0)" xlink:href="#A"/><use transform="matrix(0.07407407407407408,0,0,0.07407407407407408,19.18518518518519,0)" xlink:href="#B"/></g><g id="h"><use transform="matrix(0.07407407407407408,0,0,0.07407407407407408,0,0)" xlink:href="#r"/><use transform="matrix(0.07407407407407408,0,0,0.07407407407407408,13.333333333333336,0)" xlink:href="#v"/><use transform="matrix(0.07407407407407408,0,0,0.07407407407407408,26.66666666666667,0)" xlink:href="#v"/><use transform="matrix(0.07407407407407408,0,0,0.07407407407407408,40.00000000000001,0)" xlink:href="#w"/><use transform="matrix(0.07407407407407408,0,0,0.07407407407407408,47.40740740740742,0)" xlink:href="#s"/><use transform="matrix(0.07407407407407408,0,0,0.07407407407407408,59.185185185185205,0)" xlink:href="#x"/><use transform="matrix(0.07407407407407408,0,0,0.07407407407407408,70.96296296296298,0)" xlink:href="#o"/></g><filter id="g" filterUnits="objectBoundingBox" x="-.13" y="-.11" width="1.25" height="1.57"><feOffset result="offOut" in="SourceAlpha" dy="6"/><feGaussianBlur result="blurOut" in="offOut" stdDeviation="5"/><feColorMatrix result="colorOut" in="blurOut" values="0 0 0 0 0 0 0 0 0 0 0 0 0 0 0 0 0 0 0.16862745098039217 0"/><feBlend in="SourceGraphic" in2="colorOut"/></filter><path fill="#3d4752" d="M13-81c0-71 46-101 114-85l-1-72-28-4v-8h57v238c8 3 24-2 21 12h-47l-2-12C80 23 13-1 13-81zm77-74c-37 1-44 33-45 74 0 38 9 66 45 66 14 0 27-3 36-7v-130c-10-1-24-3-36-3" id="C"/><g id="i"><use transform="matrix(0.07407407407407408,0,0,0.07407407407407408,0,0)" xlink:href="#A"/><use transform="matrix(0.07407407407407408,0,0,0.07407407407407408,10.370370370370372,0)" xlink:href="#o"/><use transform="matrix(0.07407407407407408,0,0,0.07407407407407408,23.70370370370371,0)" xlink:href="#C"/></g><filter id="j" filterUnits="objectBoundingBox" x="-.04" y="-.07" width="1.08" height="1.33"><feOffset result="offOut" in="SourceAlpha" dy="6"/><feGaussianBlur result="blurOut" in="offOut" stdDeviation="5"/><feColorMatrix result="colorOut" in="blurOut" values="0 0 0 0 0 0 0 0 0 0 0 0 0 0 0 0 0 0 0.16862745098039217 0"/><feBlend in="SourceGraphic" in2="colorOut"/></filter><use transform="matrix(0.07407407407407408,0,0,0.07407407407407408,0,0)" xlink:href="#q" id="k"/><path fill="#3d4752" d="M47-200c-23 0-25-39 0-38 13 0 18 7 20 19-1 11-8 19-20 19zM65-12l28 4v8H8v-8l28-4v-141l-24-4v-8h53v153" id="D"/><g id="l"><use transform="matrix(0.07407407407407408,0,0,0.07407407407407408,0,0)" xlink:href="#D"/><use transform="matrix(0.07407407407407408,0,0,0.07407407407407408,7.407407407407408,0)" xlink:href="#C"/></g><path fill="#3d4752" d="M185-92v17H18v-17h167zm0-73v18H18v-18h167" id="E"/><path fill="#3d4752" d="M18-33v-18l142-69-142-68v-18l168 82v9" id="F"/><path fill="#3d4752" d="M60-37c14 0 21 9 21 21S72 5 60 5C47 5 38-4 38-16s8-21 22-21zM41-236h38L68-68H52" id="G"/><g id="m"><use transform="matrix(0.07407407407407408,0,0,0.07407407407407408,0,0)" xlink:href="#x"/><use transform="matrix(0.07407407407407408,0,0,0.07407407407407408,11.777777777777779,0)" xlink:href="#E"/><use transform="matrix(0.07407407407407408,0,0,0.07407407407407408,26.814814814814817,0)" xlink:href="#F"/><use transform="matrix(0.07407407407407408,0,0,0.07407407407407408,41.851851851851855,0)" xlink:href="#G"/><use transform="matrix(0.07407407407407408,0,0,0.07407407407407408,50.66666666666667,0)" xlink:href="#G"/><use transform="matrix(0.07407407407407408,0,0,0.07407407407407408,59.48148148148149,0)" xlink:href="#x"/></g></defs></g></svg>